// 
// 
// 

#include "Songs.h"
#include "Tone.h"
#include "MusicPlayer.h"

const unsigned int zelda1Notes[] PROGMEM =
{
	NOTE_BF4, NOTE_REST, NOTE_REST, NOTE_BF4, NOTE_BF4, NOTE_BF4, NOTE_BF4, NOTE_BF4, NOTE_REST, NOTE_AF4, NOTE_BF4, NOTE_REST, NOTE_REST, NOTE_BF4, NOTE_BF4, NOTE_BF4, NOTE_BF4, NOTE_BF4, NOTE_REST, NOTE_AF4, NOTE_BF4, NOTE_REST, NOTE_REST, NOTE_BF4, NOTE_BF4, NOTE_BF4, NOTE_BF4, NOTE_BF4, NOTE_REST, NOTE_F4, NOTE_F4, NOTE_F4, NOTE_F4, NOTE_F4, NOTE_F4, NOTE_F4, NOTE_F4, NOTE_F4, NOTE_F4, NOTE_BF4, NOTE_F4, NOTE_F4, NOTE_REST, NOTE_BF4, NOTE_BF4, NOTE_C5, NOTE_D5, NOTE_EF5, NOTE_F5, NOTE_REST, NOTE_F5, NOTE_F5, NOTE_GF5, NOTE_AF5, NOTE_BF5, NOTE_REST, NOTE_BF5, NOTE_BF5, NOTE_BF5, NOTE_AF5, NOTE_GF5, NOTE_AF5, NOTE_GF5, NOTE_F5, NOTE_F5, NOTE_EF5, NOTE_EF5, NOTE_F5, NOTE_GF5, NOTE_F5, NOTE_EF5, NOTE_DF5, NOTE_DF5, NOTE_EF5, NOTE_F5, NOTE_EF5, NOTE_DF5, NOTE_C5, NOTE_C5, NOTE_D5, NOTE_E5, NOTE_G5, NOTE_F5, NOTE_F4, NOTE_F4, NOTE_F4, NOTE_F4, NOTE_F4, NOTE_F4, NOTE_F4, NOTE_F4, NOTE_F4, NOTE_F4, NOTE_BF4, NOTE_F4, NOTE_F4, NOTE_REST, NOTE_BF4, NOTE_BF4, NOTE_C5, NOTE_D5, NOTE_EF5, NOTE_F5, NOTE_REST, NOTE_F5, NOTE_F5, NOTE_GF5, NOTE_AF5, NOTE_BF5, NOTE_REST, NOTE_DF6, NOTE_C6, NOTE_REST, NOTE_A5, NOTE_F5, NOTE_GF5, NOTE_REST, NOTE_BF5, NOTE_A5, NOTE_REST, NOTE_F5, NOTE_F5, NOTE_GF5, NOTE_REST, NOTE_BF5, NOTE_A5, NOTE_REST, NOTE_F5, NOTE_D5, NOTE_EF5, NOTE_REST, NOTE_GF5, NOTE_F5, NOTE_REST, NOTE_DF5, NOTE_BF4, NOTE_C5, NOTE_REST, NOTE_C5, NOTE_D5, NOTE_E5, NOTE_G5, NOTE_F5, NOTE_REST, NOTE_F4, NOTE_F4, NOTE_F4, NOTE_F4, NOTE_F4, NOTE_F4, NOTE_F4, NOTE_F4, NOTE_F4, NOTE_F4, NOTE_BF4, NOTE_F4, NOTE_F4, NOTE_REST, NOTE_BF4, NOTE_BF4, NOTE_C5, NOTE_D5, NOTE_EF5, NOTE_F5, NOTE_REST, NOTE_F5, NOTE_F5, NOTE_GF5, NOTE_AF5, NOTE_BF5, NOTE_REST, NOTE_BF5, NOTE_BF5, NOTE_BF5, NOTE_AF5, NOTE_GF5, NOTE_AF5, NOTE_GF5, NOTE_F5, NOTE_F5, NOTE_EF5, NOTE_EF5, NOTE_F5, NOTE_GF5, NOTE_F5, NOTE_EF5, NOTE_DF5, NOTE_DF5, NOTE_EF5, NOTE_F5, NOTE_EF5, NOTE_DF5, NOTE_C5, NOTE_C5, NOTE_D5, NOTE_E5, NOTE_G5, NOTE_F5, NOTE_F4, NOTE_F4, NOTE_F4, NOTE_F4, NOTE_F4, NOTE_F4, NOTE_F4, NOTE_F4, NOTE_F4, NOTE_F4, NOTE_BF4, NOTE_F4, NOTE_F4, NOTE_REST, NOTE_BF4, NOTE_BF4, NOTE_C5, NOTE_D5, NOTE_EF5, NOTE_F5, NOTE_REST, NOTE_F5, NOTE_F5, NOTE_GF5, NOTE_AF5, NOTE_BF5, NOTE_REST, NOTE_DF6, NOTE_C6, NOTE_REST, NOTE_A5, NOTE_F5, NOTE_GF5, NOTE_REST, NOTE_BF5, NOTE_A5, NOTE_REST, NOTE_F5, NOTE_F5, NOTE_GF5, NOTE_REST, NOTE_BF5, NOTE_A5, NOTE_REST, NOTE_F5, NOTE_D5, NOTE_EF5, NOTE_REST, NOTE_GF5, NOTE_F5, NOTE_REST, NOTE_DF5, NOTE_BF4, NOTE_C5, NOTE_REST, NOTE_C5, NOTE_D5, NOTE_E5, NOTE_G5, NOTE_F5, NOTE_REST, NOTE_F4, NOTE_F4, NOTE_F4, NOTE_F4, NOTE_F4, NOTE_F4, NOTE_F4, NOTE_F4, NOTE_F4, NOTE_F4, NOTE_BF5
};

const unsigned int zelda1Times[] PROGMEM =
{
	800, 133, 133, 133, 133, 133, 133, 100, 200, 100, 400, 133, 133, 133, 133, 133, 133, 100, 200, 100, 400, 133, 133, 133, 133, 133, 133, 100, 100, 100, 100, 200, 100, 100, 200, 100, 100, 200, 200, 400, 400, 200, 100, 100, 100, 100, 100, 100, 800, 200, 200, 133, 133, 133, 800, 133, 133, 133, 133, 133, 133, 300, 100, 800, 400, 200, 100, 100, 800, 200, 200, 200, 100, 100, 800, 200, 200, 200, 100, 100, 800, 400, 200, 100, 100, 200, 100, 100, 200, 100, 100, 200, 200, 400, 400, 200, 100, 100, 100, 100, 100, 100, 800, 200, 200, 133, 133, 133, 800, 400, 400, 200, 200, 800, 400, 800, 400, 400, 200, 200, 800, 400, 800, 400, 400, 200, 200, 800, 400, 800, 400, 400, 200, 200, 800, 400, 100, 100, 100, 100, 800, 400, 100, 100, 100, 100, 200, 100, 100, 200, 100, 100, 200, 200, 400, 400, 200, 100, 100, 100, 100, 100, 100, 800, 200, 200, 133, 133, 133, 800, 133, 133, 133, 133, 133, 133, 300, 100, 800, 400, 200, 100, 100, 800, 200, 200, 200, 100, 100, 800, 200, 200, 200, 100, 100, 800, 400, 200, 100, 100, 200, 100, 100, 200, 100, 100, 200, 200, 400, 400, 200, 100, 100, 100, 100, 100, 100, 800, 200, 200, 133, 133, 133, 800, 400, 400, 200, 200, 800, 400, 800, 400, 400, 200, 200, 800, 400, 800, 400, 400, 200, 200, 800, 400, 800, 400, 400, 200, 200, 800, 400, 100, 100, 100, 100, 800, 400, 100, 100, 100, 100, 200, 100, 100, 200, 100, 100, 200, 200, 400
};

const unsigned int zelda2Notes[] PROGMEM =
{
	NOTE_D4, NOTE_REST, NOTE_REST, NOTE_D4, NOTE_D4, NOTE_D4, NOTE_D4, NOTE_C4, NOTE_REST, NOTE_C4, NOTE_C4, NOTE_REST, NOTE_REST, NOTE_C4, NOTE_C4, NOTE_C4, NOTE_DF4, NOTE_REST, NOTE_DF4, NOTE_DF4, NOTE_REST, NOTE_REST, NOTE_DF4, NOTE_DF4, NOTE_DF4, NOTE_DF4, NOTE_DF4, NOTE_REST, NOTE_A3, NOTE_A3, NOTE_A3, NOTE_A3, NOTE_A3, NOTE_A3, NOTE_A3, NOTE_A3, NOTE_A3, NOTE_A3, NOTE_D4, NOTE_D4, NOTE_D4, NOTE_C4, NOTE_D4, NOTE_D4, NOTE_D4, NOTE_EF4, NOTE_F4, NOTE_G4, NOTE_AF4, NOTE_BF4, NOTE_BF4, NOTE_C5, NOTE_D5, NOTE_EF5, NOTE_F5, NOTE_AF4, NOTE_BF4, NOTE_C5, NOTE_DF5, NOTE_GF4, NOTE_GF4, NOTE_AF4, NOTE_BF4, NOTE_C5, NOTE_DF5, NOTE_DF5, NOTE_DF5, NOTE_DF5, NOTE_C5, NOTE_BF4, NOTE_DF5, NOTE_AF4, NOTE_AF4, NOTE_AF4, NOTE_GF4, NOTE_AF4, NOTE_AF4, NOTE_AF4, NOTE_GF4, NOTE_AF4, NOTE_GF4, NOTE_GF4, NOTE_F4, NOTE_GF4, NOTE_GF4, NOTE_AF4, NOTE_BF4, NOTE_AF4, NOTE_GF4, NOTE_F4, NOTE_F4, NOTE_EF4, NOTE_F4, NOTE_F4, NOTE_GF4, NOTE_AF4, NOTE_GF4, NOTE_F4, NOTE_E4, NOTE_E4, NOTE_E4, NOTE_F4, NOTE_G4, NOTE_G4, NOTE_A4, NOTE_BF4, NOTE_C5, NOTE_A4, NOTE_A3, NOTE_A3, NOTE_A3, NOTE_A3, NOTE_A3, NOTE_A3, NOTE_A3, NOTE_A3, NOTE_A3, NOTE_A3, NOTE_D4, NOTE_D4, NOTE_D4, NOTE_C4, NOTE_D4, NOTE_D4, NOTE_D4, NOTE_EF4, NOTE_F4, NOTE_G4, NOTE_AF4, NOTE_BF4, NOTE_BF4, NOTE_C5, NOTE_D5, NOTE_EF5, NOTE_F5, NOTE_AF4, NOTE_BF4, NOTE_C5, NOTE_DF5, NOTE_GF4, NOTE_GF4, NOTE_AF4, NOTE_BF4, NOTE_C5, NOTE_DF5, NOTE_DF5, NOTE_EF5, NOTE_REST, NOTE_F4, NOTE_F4, NOTE_EF4, NOTE_F4, NOTE_F4, NOTE_E4, NOTE_BF4, NOTE_DF5, NOTE_E4, NOTE_BF4, NOTE_DF5, NOTE_E5, NOTE_DF5, NOTE_C5, NOTE_REST, NOTE_F4, NOTE_F4, NOTE_F4, NOTE_F4, NOTE_F4, NOTE_E4, NOTE_BF4, NOTE_DF5, NOTE_E4, NOTE_BF4, NOTE_DF5, NOTE_E5, NOTE_DF5, NOTE_C5, NOTE_REST, NOTE_F4, NOTE_F4, NOTE_F4, NOTE_F4, NOTE_A4, NOTE_CF5, NOTE_REST, NOTE_CF4, NOTE_CF4, NOTE_BF3, NOTE_CF4, NOTE_EF4, NOTE_EF4, NOTE_EF4, NOTE_BF3, NOTE_REST, NOTE_BF3, NOTE_BF3, NOTE_AF3, NOTE_BF3, NOTE_F4, NOTE_F4, NOTE_F4, NOTE_E4, NOTE_REST, NOTE_E4, NOTE_F4, NOTE_G4, NOTE_REST, NOTE_G4, NOTE_A4, NOTE_BF4, NOTE_C5, NOTE_A4, NOTE_REST, NOTE_A3, NOTE_A3, NOTE_A3, NOTE_A3, NOTE_A3, NOTE_A3, NOTE_A3, NOTE_A3, NOTE_A3, NOTE_A3, NOTE_D4, NOTE_D4, NOTE_D4, NOTE_C4, NOTE_D4, NOTE_D4, NOTE_D4, NOTE_EF4, NOTE_F4, NOTE_G4, NOTE_AF4, NOTE_BF4, NOTE_BF4, NOTE_C5, NOTE_D5, NOTE_EF5, NOTE_F5, NOTE_AF4, NOTE_BF4, NOTE_C5, NOTE_DF5, NOTE_GF4, NOTE_GF4, NOTE_AF4, NOTE_BF4, NOTE_C5, NOTE_DF5, NOTE_DF5, NOTE_DF5, NOTE_DF5, NOTE_C5, NOTE_BF4, NOTE_DF5, NOTE_AF4, NOTE_AF4, NOTE_AF4, NOTE_GF4, NOTE_AF4, NOTE_AF4, NOTE_AF4, NOTE_GF4, NOTE_AF4, NOTE_GF4, NOTE_GF4, NOTE_F4, NOTE_GF4, NOTE_GF4, NOTE_AF4, NOTE_BF4, NOTE_AF4, NOTE_GF4, NOTE_F4, NOTE_F4, NOTE_EF4, NOTE_F4, NOTE_F4, NOTE_GF4, NOTE_AF4, NOTE_GF4, NOTE_F4, NOTE_E4, NOTE_E4, NOTE_E4, NOTE_F4, NOTE_G4, NOTE_G4, NOTE_A4, NOTE_BF4, NOTE_C5, NOTE_A4, NOTE_A3, NOTE_A3, NOTE_A3, NOTE_A3, NOTE_A3, NOTE_A3, NOTE_A3, NOTE_A3, NOTE_A3, NOTE_A3, NOTE_D4, NOTE_D4, NOTE_D4, NOTE_C4, NOTE_D4, NOTE_D4, NOTE_D4, NOTE_EF4, NOTE_F4, NOTE_G4, NOTE_AF4, NOTE_BF4, NOTE_BF4, NOTE_C5, NOTE_D5, NOTE_EF5, NOTE_F5, NOTE_AF4, NOTE_BF4, NOTE_C5, NOTE_DF5, NOTE_GF4, NOTE_GF4, NOTE_AF4, NOTE_BF4, NOTE_C5, NOTE_DF5, NOTE_DF5, NOTE_EF5, NOTE_REST, NOTE_F4, NOTE_F4, NOTE_EF4, NOTE_F4, NOTE_F4, NOTE_E4, NOTE_BF4, NOTE_DF5, NOTE_E4, NOTE_BF4, NOTE_DF5, NOTE_E5, NOTE_DF5, NOTE_C5, NOTE_REST, NOTE_F4, NOTE_F4, NOTE_F4, NOTE_F4, NOTE_F4, NOTE_E4, NOTE_BF4, NOTE_DF5, NOTE_E4, NOTE_BF4, NOTE_DF5, NOTE_E5, NOTE_DF5, NOTE_C5, NOTE_REST, NOTE_F4, NOTE_F4, NOTE_F4, NOTE_F4, NOTE_A4, NOTE_CF5, NOTE_REST, NOTE_CF4, NOTE_CF4, NOTE_BF3, NOTE_CF4, NOTE_EF4, NOTE_EF4, NOTE_EF4, NOTE_BF3, NOTE_REST, NOTE_BF3, NOTE_BF3, NOTE_AF3, NOTE_BF3, NOTE_F4, NOTE_F4, NOTE_F4, NOTE_E4, NOTE_REST, NOTE_E4, NOTE_F4, NOTE_G4, NOTE_REST, NOTE_G4, NOTE_A4, NOTE_BF4, NOTE_C5, NOTE_A4, NOTE_REST, NOTE_A3, NOTE_A3, NOTE_A3, NOTE_A3, NOTE_A3, NOTE_A3, NOTE_A3, NOTE_A3, NOTE_A3, NOTE_A3, NOTE_BF3
};

const unsigned int zelda2Times[] PROGMEM =
{
	800, 133, 133, 133, 133, 133, 133, 100, 200, 100, 400, 200, 200, 133, 133, 133, 100, 200, 100, 400, 133, 133, 133, 133, 133, 133, 100, 100, 100, 100, 200, 100, 100, 200, 100, 100, 200, 200, 400, 133, 133, 133, 300, 100, 100, 100, 100, 100, 300, 100, 100, 100, 100, 100, 400, 133, 133, 133, 300, 100, 100, 100, 100, 100, 133, 133, 133, 133, 133, 133, 300, 100, 133, 133, 133, 300, 100, 133, 133, 133, 200, 100, 100, 200, 100, 100, 400, 200, 200, 200, 100, 100, 200, 100, 100, 400, 200, 200, 400, 200, 100, 100, 200, 100, 100, 200, 200, 200, 100, 100, 200, 100, 100, 200, 100, 100, 200, 200, 400, 133, 133, 133, 300, 100, 100, 100, 100, 100, 300, 100, 100, 100, 100, 100, 400, 133, 133, 133, 300, 100, 100, 100, 100, 100, 400, 400, 200, 200, 133, 133, 133, 400, 400, 133, 133, 133, 133, 133, 133, 400, 400, 200, 200, 133, 133, 133, 400, 400, 133, 133, 133, 133, 133, 133, 400, 400, 200, 200, 133, 133, 133, 400, 400, 200, 200, 133, 133, 133, 400, 133, 133, 133, 200, 200, 133, 133, 133, 400, 133, 133, 133, 400, 200, 100, 100, 100, 100, 100, 100, 200, 200, 100, 100, 100, 100, 200, 100, 100, 200, 100, 100, 200, 200, 400, 133, 133, 133, 300, 100, 100, 100, 100, 100, 300, 100, 100, 100, 100, 100, 400, 133, 133, 133, 300, 100, 100, 100, 100, 100, 133, 133, 133, 133, 133, 133, 300, 100, 133, 133, 133, 300, 100, 133, 133, 133, 200, 100, 100, 200, 100, 100, 400, 200, 200, 200, 100, 100, 200, 100, 100, 400, 200, 200, 400, 200, 100, 100, 200, 100, 100, 200, 200, 200, 100, 100, 200, 100, 100, 200, 100, 100, 200, 200, 400, 133, 133, 133, 300, 100, 100, 100, 100, 100, 300, 100, 100, 100, 100, 100, 400, 133, 133, 133, 300, 100, 100, 100, 100, 100, 400, 400, 200, 200, 133, 133, 133, 400, 400, 133, 133, 133, 133, 133, 133, 400, 400, 200, 200, 133, 133, 133, 400, 400, 133, 133, 133, 133, 133, 133, 400, 400, 200, 200, 133, 133, 133, 400, 400, 200, 200, 133, 133, 133, 400, 133, 133, 133, 200, 200, 133, 133, 133, 400, 133, 133, 133, 400, 200, 100, 100, 100, 100, 100, 100, 200, 200, 100, 100, 100, 100, 200, 100, 100, 200, 100, 100, 200, 200, 400
};

const struct Song zeldaSong PROGMEM =
{
	zelda1Notes,
	zelda1Times,
	zelda2Notes,
	zelda2Times,
	sizeof(zelda1Notes) / sizeof(zelda1Notes[0]),
	sizeof(zelda2Notes) / sizeof(zelda2Notes[0])
};

const unsigned int tetris1Notes[] PROGMEM =
{
	NOTE_E5, NOTE_B4, NOTE_C5, NOTE_D5, NOTE_E5, NOTE_D5, NOTE_C5, NOTE_B4, NOTE_A4, NOTE_A4, NOTE_C5, NOTE_E5, NOTE_D5, NOTE_C5, NOTE_B4, NOTE_B4, NOTE_C5, NOTE_D5, NOTE_E5, NOTE_C5, NOTE_A4, NOTE_A4, NOTE_REST, NOTE_D5, NOTE_F5, NOTE_A5, NOTE_G5, NOTE_F5, NOTE_E5, NOTE_E5, NOTE_C5, NOTE_E5, NOTE_D5, NOTE_C5, NOTE_B4, NOTE_B4, NOTE_C5, NOTE_D5, NOTE_E5, NOTE_C5, NOTE_A4, NOTE_A4, NOTE_REST, NOTE_E5, NOTE_B4, NOTE_C5, NOTE_D5, NOTE_E5, NOTE_D5, NOTE_C5, NOTE_B4, NOTE_A4, NOTE_A4, NOTE_C5, NOTE_E5, NOTE_D5, NOTE_C5, NOTE_B4, NOTE_B4, NOTE_C5, NOTE_D5, NOTE_E5, NOTE_C5, NOTE_A4, NOTE_A4, NOTE_REST, NOTE_D5, NOTE_F5, NOTE_A5, NOTE_G5, NOTE_F5, NOTE_E5, NOTE_E5, NOTE_C5, NOTE_E5, NOTE_D5, NOTE_C5, NOTE_B4, NOTE_B4, NOTE_C5, NOTE_D5, NOTE_E5, NOTE_C5, NOTE_A4, NOTE_A4, NOTE_REST, NOTE_E5, NOTE_C5, NOTE_D5, NOTE_B4, NOTE_C5, NOTE_A4, NOTE_GS4, NOTE_B4, NOTE_REST, NOTE_E5, NOTE_C5, NOTE_D5, NOTE_B4, NOTE_C5, NOTE_E5, NOTE_A5, NOTE_GS5, NOTE_REST, NOTE_E5, NOTE_B4, NOTE_C5, NOTE_D5, NOTE_E5, NOTE_D5, NOTE_C5, NOTE_B4, NOTE_A4, NOTE_A4, NOTE_C5, NOTE_E5, NOTE_D5, NOTE_C5, NOTE_B4, NOTE_B4, NOTE_C5, NOTE_D5, NOTE_E5, NOTE_C5, NOTE_A4, NOTE_A4, NOTE_REST, NOTE_D5, NOTE_F5, NOTE_A5, NOTE_G5, NOTE_F5, NOTE_E5, NOTE_E5, NOTE_C5, NOTE_E5, NOTE_D5, NOTE_C5, NOTE_B4, NOTE_B4, NOTE_C5, NOTE_D5, NOTE_E5, NOTE_C5, NOTE_A4, NOTE_A4, NOTE_REST
};

const unsigned int tetris1Times[] PROGMEM =
{
	500, 250, 250, 250, 125, 125, 250, 250, 500, 250, 250, 500, 250, 250, 500, 250, 250, 500, 500, 500, 500, 1000, 250, 500, 250, 500, 250, 250, 500, 250, 250, 500, 250, 250, 500, 250, 250, 500, 500, 500, 500, 500, 500, 500, 250, 250, 250, 125, 125, 250, 250, 500, 250, 250, 500, 250, 250, 500, 250, 250, 500, 500, 500, 500, 1000, 250, 500, 250, 500, 250, 250, 500, 250, 250, 500, 250, 250, 500, 250, 250, 500, 500, 500, 500, 500, 500, 1000, 1000, 1000, 1000, 1000, 1000, 1000, 500, 500, 1000, 1000, 1000, 1000, 500, 500, 1000, 1000, 1000, 500, 250, 250, 250, 125, 125, 250, 250, 500, 250, 250, 500, 250, 250, 500, 250, 250, 500, 500, 500, 500, 1000, 250, 500, 250, 500, 250, 250, 500, 250, 250, 500, 250, 250, 500, 250, 250, 500, 500, 500, 500, 500, 500
};

const unsigned int tetris2Notes[] PROGMEM =
{
	NOTE_B4, NOTE_GS4, NOTE_A4, NOTE_B4, NOTE_A4, NOTE_GS4, NOTE_E4, NOTE_E4, NOTE_A4, NOTE_C5, NOTE_B4, NOTE_A4, NOTE_GS4, NOTE_E4, NOTE_GS4, NOTE_A4, NOTE_B4, NOTE_C5, NOTE_A4, NOTE_E4, NOTE_E4, NOTE_REST, NOTE_F4, NOTE_A4, NOTE_C5, NOTE_C5, NOTE_C5, NOTE_B4, NOTE_A4, NOTE_G4, NOTE_G4, NOTE_E4, NOTE_G4, NOTE_A4, NOTE_G4, NOTE_F4, NOTE_E4, NOTE_GS4, NOTE_E4, NOTE_GS4, NOTE_A4, NOTE_B4, NOTE_GS4, NOTE_BS4, NOTE_GS4, NOTE_A4, NOTE_E4, NOTE_E4, NOTE_E4, NOTE_REST, NOTE_B4, NOTE_GS4, NOTE_A4, NOTE_B4, NOTE_A4, NOTE_GS4, NOTE_E4, NOTE_E4, NOTE_A4, NOTE_C5, NOTE_B4, NOTE_A4, NOTE_GS4, NOTE_E4, NOTE_GS4, NOTE_A4, NOTE_B4, NOTE_C5, NOTE_A4, NOTE_E4, NOTE_E4, NOTE_REST, NOTE_F4, NOTE_A4, NOTE_C5, NOTE_C5, NOTE_C5, NOTE_B4, NOTE_A4, NOTE_G4, NOTE_G4, NOTE_E4, NOTE_G4, NOTE_A4, NOTE_G4, NOTE_F4, NOTE_E4, NOTE_GS4, NOTE_E4, NOTE_GS4, NOTE_A4, NOTE_B4, NOTE_GS4, NOTE_BS4, NOTE_GS4, NOTE_A4, NOTE_E4, NOTE_E4, NOTE_E4, NOTE_REST, NOTE_C5, NOTE_A4, NOTE_B4, NOTE_GS4, NOTE_A4, NOTE_E4, NOTE_E4, NOTE_GS4, NOTE_REST, NOTE_BS4, NOTE_A4, NOTE_B4, NOTE_GS4, NOTE_A4, NOTE_C5, NOTE_E5, NOTE_D5, NOTE_REST, NOTE_B4, NOTE_GS4, NOTE_A4, NOTE_B4, NOTE_A4, NOTE_GS4, NOTE_E4, NOTE_E4, NOTE_A4, NOTE_C5, NOTE_B4, NOTE_A4, NOTE_GS4, NOTE_E4, NOTE_GS4, NOTE_A4, NOTE_B4, NOTE_C5, NOTE_A4, NOTE_E4, NOTE_E4, NOTE_REST, NOTE_F4, NOTE_A4, NOTE_C5, NOTE_C5, NOTE_C5, NOTE_B4, NOTE_A4, NOTE_G4, NOTE_G4, NOTE_E4, NOTE_G4, NOTE_A4, NOTE_G4, NOTE_F4, NOTE_E4, NOTE_GS4, NOTE_E4, NOTE_GS4, NOTE_A4, NOTE_B4, NOTE_GS4, NOTE_BS4, NOTE_GS4, NOTE_A4, NOTE_E4, NOTE_E4, NOTE_E4, NOTE_REST
};

const unsigned int tetris2Times[] PROGMEM =
{
	500, 250, 250, 500, 250, 250, 500, 250, 250, 500, 250, 250, 250, 250, 250, 250, 500, 500, 500, 500, 1000, 250, 500, 250, 250, 125, 125, 250, 250, 500, 250, 250, 250, 125, 125, 250, 250, 250, 250, 250, 250, 250, 250, 250, 250, 250, 250, 500, 500, 500, 500, 250, 250, 500, 250, 250, 500, 250, 250, 500, 250, 250, 250, 250, 250, 250, 500, 500, 500, 500, 1000, 250, 500, 250, 250, 125, 125, 250, 250, 500, 250, 250, 250, 125, 125, 250, 250, 250, 250, 250, 250, 250, 250, 250, 250, 250, 250, 500, 500, 500, 1000, 1000, 1000, 1000, 1000, 1000, 1000, 500, 500, 1000, 1000, 1000, 1000, 500, 500, 1000, 1000, 1000, 500, 250, 250, 500, 250, 250, 500, 250, 250, 500, 250, 250, 250, 250, 250, 250, 500, 500, 500, 500, 1000, 250, 500, 250, 250, 125, 125, 250, 250, 500, 250, 250, 250, 125, 125, 250, 250, 250, 250, 250, 250, 250, 250, 250, 250, 250, 250, 500, 500, 500
};

const struct Song tetrisSong PROGMEM =
{
	tetris1Notes,
	tetris1Times,
	tetris2Notes,
	tetris2Times,
	sizeof(tetris1Notes) / sizeof(tetris1Notes[0]),
	sizeof(tetris2Notes) / sizeof(castle2Notes[0])
};

#pragma region Mario Castle Theme

const unsigned int castle1Notes[] PROGMEM =
{
	NOTE_D5, NOTE_REST, NOTE_DF5, NOTE_REST, NOTE_C5, NOTE_REST, NOTE_DF5, NOTE_REST, NOTE_D5, NOTE_REST, NOTE_EF5, NOTE_REST, NOTE_D5, NOTE_REST, NOTE_DF5, NOTE_REST, NOTE_D5, NOTE_REST, NOTE_DF5, NOTE_REST, NOTE_C5, NOTE_REST, NOTE_DF5, NOTE_REST, NOTE_D5, NOTE_REST, NOTE_EF5, NOTE_REST, NOTE_D5, NOTE_REST, NOTE_DF5, NOTE_REST, NOTE_DF5, NOTE_REST, NOTE_C5, NOTE_REST, NOTE_DF5, NOTE_REST, NOTE_D5, NOTE_REST, NOTE_DF5, NOTE_REST, NOTE_D5, NOTE_REST, NOTE_DF5, NOTE_REST, NOTE_C5, NOTE_REST, NOTE_DF5, NOTE_REST, NOTE_C5, NOTE_REST, NOTE_DF5, NOTE_REST, NOTE_D5, NOTE_REST, NOTE_DF5, NOTE_REST, NOTE_D5, NOTE_REST, NOTE_DF5, NOTE_REST, NOTE_C5, NOTE_REST, NOTE_F5, NOTE_REST, NOTE_GF5, NOTE_REST, NOTE_F5, NOTE_REST, NOTE_FF5, NOTE_REST, NOTE_F5, NOTE_REST, NOTE_FF5, NOTE_REST, NOTE_EF5, NOTE_REST, NOTE_FF5, NOTE_REST, NOTE_F5, NOTE_REST, NOTE_GF5, NOTE_REST, NOTE_F5, NOTE_REST, NOTE_FF5, NOTE_REST, NOTE_F5, NOTE_REST, NOTE_FF5, NOTE_REST, NOTE_EF5, NOTE_REST, NOTE_FF5, NOTE_REST, NOTE_D5, NOTE_REST, NOTE_DF5, NOTE_REST, NOTE_C5, NOTE_REST, NOTE_DF5, NOTE_REST, NOTE_D5, NOTE_REST, NOTE_EF5, NOTE_REST, NOTE_D5, NOTE_REST, NOTE_DF5, NOTE_REST, NOTE_D5, NOTE_REST, NOTE_DF5, NOTE_REST, NOTE_C5, NOTE_REST, NOTE_DF5, NOTE_REST, NOTE_D5, NOTE_REST, NOTE_EF5, NOTE_REST, NOTE_D5, NOTE_REST, NOTE_DF5, NOTE_REST, NOTE_D5, NOTE_REST, NOTE_DF5, NOTE_REST, NOTE_C5, NOTE_REST, NOTE_DF5, NOTE_REST, NOTE_D5, NOTE_REST, NOTE_EF5, NOTE_REST, NOTE_D5, NOTE_REST, NOTE_DF5, NOTE_REST, NOTE_D5, NOTE_REST, NOTE_DF5, NOTE_REST, NOTE_C5, NOTE_REST, NOTE_DF5, NOTE_REST, NOTE_D5, NOTE_REST, NOTE_EF5, NOTE_REST, NOTE_D5, NOTE_REST, NOTE_DF5, NOTE_REST, NOTE_DF5, NOTE_REST, NOTE_C5, NOTE_REST, NOTE_DF5, NOTE_REST, NOTE_D5, NOTE_REST, NOTE_DF5, NOTE_REST, NOTE_D5, NOTE_REST, NOTE_DF5, NOTE_REST, NOTE_C5, NOTE_REST, NOTE_DF5, NOTE_REST, NOTE_C5, NOTE_REST, NOTE_DF5, NOTE_REST, NOTE_D5, NOTE_REST, NOTE_DF5, NOTE_REST, NOTE_D5, NOTE_REST, NOTE_DF5, NOTE_REST, NOTE_C5, NOTE_REST, NOTE_F5, NOTE_REST, NOTE_GF5, NOTE_REST, NOTE_F5, NOTE_REST, NOTE_FF5, NOTE_REST, NOTE_F5, NOTE_REST, NOTE_FF5, NOTE_REST, NOTE_EF5, NOTE_REST, NOTE_FF5, NOTE_REST, NOTE_F5, NOTE_REST, NOTE_GF5, NOTE_REST, NOTE_F5, NOTE_REST, NOTE_FF5, NOTE_REST, NOTE_F5, NOTE_REST, NOTE_FF5, NOTE_REST, NOTE_EF5, NOTE_REST, NOTE_FF5, NOTE_REST, NOTE_D5, NOTE_REST, NOTE_DF5, NOTE_REST, NOTE_C5, NOTE_REST, NOTE_DF5, NOTE_REST, NOTE_D5, NOTE_REST, NOTE_EF5, NOTE_REST, NOTE_D5, NOTE_REST, NOTE_DF5, NOTE_REST, NOTE_D5, NOTE_REST, NOTE_DF5, NOTE_REST, NOTE_C5, NOTE_REST, NOTE_DF5, NOTE_REST, NOTE_D5, NOTE_REST, NOTE_EF5, NOTE_REST, NOTE_D5, NOTE_REST, NOTE_DF5, NOTE_REST
};

const unsigned int castle1Times[] PROGMEM =
{
	81, 81, 81, 81, 81, 81, 81, 81, 81, 81, 81, 81, 81, 81, 81, 81, 81, 81, 81, 81, 81, 81, 81, 81, 81, 81, 81, 81, 81, 81, 81, 81, 81, 81, 81, 81, 81, 81, 81, 81, 81, 81, 81, 81, 81, 81, 81, 81, 81, 81, 81, 81, 81, 81, 81, 81, 81, 81, 81, 81, 81, 81, 81, 81, 81, 81, 81, 81, 81, 81, 81, 81, 81, 81, 81, 81, 81, 81, 81, 81, 81, 81, 81, 81, 81, 81, 81, 81, 81, 81, 81, 81, 81, 81, 81, 81, 81, 81, 81, 81, 81, 81, 81, 81, 81, 81, 81, 81, 81, 81, 81, 81, 81, 81, 81, 81, 81, 81, 81, 81, 81, 81, 81, 81, 81, 81, 81, 81, 81, 81, 81, 81, 81, 81, 81, 81, 81, 81, 81, 81, 81, 81, 81, 81, 81, 81, 81, 81, 81, 81, 81, 81, 81, 81, 81, 81, 81, 81, 81, 81, 81, 81, 81, 81, 81, 81, 81, 81, 81, 81, 81, 81, 81, 81, 81, 81, 81, 81, 81, 81, 81, 81, 81, 81, 81, 81, 81, 81, 81, 81, 81, 81, 81, 81, 81, 81, 81, 81, 81, 81, 81, 81, 81, 81, 81, 81, 81, 81, 81, 81, 81, 81, 81, 81, 81, 81, 81, 81, 81, 81, 81, 81, 81, 81, 81, 81, 81, 81, 81, 81, 81, 81, 81, 81, 81, 81, 81, 81, 81, 81, 81, 81, 81, 81, 81, 81, 81, 81, 81, 81, 81, 81, 81, 81, 81, 81
};

const unsigned int castle2Notes[] PROGMEM =
{
	NOTE_BF4, NOTE_G4, NOTE_A4, NOTE_G4, NOTE_AF4, NOTE_G4, NOTE_A4, NOTE_G4, NOTE_BF4, NOTE_G4, NOTE_B4, NOTE_G4, NOTE_BF4, NOTE_G4, NOTE_A4, NOTE_G4, NOTE_BF4, NOTE_G4, NOTE_A4, NOTE_G4, NOTE_AF4, NOTE_G4, NOTE_A4, NOTE_G4, NOTE_BF4, NOTE_G4, NOTE_B4, NOTE_G4, NOTE_BF4, NOTE_G4, NOTE_A4, NOTE_G4, NOTE_A4, NOTE_GF4, NOTE_AF4, NOTE_GF4, NOTE_A4, NOTE_GF4, NOTE_A4, NOTE_GF4, NOTE_A4, NOTE_GF4, NOTE_A4, NOTE_GF4, NOTE_A4, NOTE_GF4, NOTE_AF4, NOTE_GF4, NOTE_A4, NOTE_GF4, NOTE_AF4, NOTE_GF4, NOTE_A4, NOTE_GF4, NOTE_A4, NOTE_GF4, NOTE_A4, NOTE_GF4, NOTE_A4, NOTE_GF4, NOTE_A4, NOTE_GF4, NOTE_AF4, NOTE_GF4, NOTE_D5, NOTE_BF4, NOTE_EF5, NOTE_BF4, NOTE_D5, NOTE_BF4, NOTE_DF5, NOTE_BF4, NOTE_D5, NOTE_BF4, NOTE_DF5, NOTE_BF4, NOTE_C5, NOTE_BF4, NOTE_DF5, NOTE_BF4, NOTE_D5, NOTE_BF4, NOTE_EF5, NOTE_BF4, NOTE_D5, NOTE_BF4, NOTE_DF5, NOTE_BF4, NOTE_D5, NOTE_BF4, NOTE_DF5, NOTE_BF4, NOTE_C5, NOTE_BF4, NOTE_DF5, NOTE_BF4, NOTE_BF4, NOTE_G4, NOTE_A4, NOTE_G4, NOTE_AF4, NOTE_G4, NOTE_A4, NOTE_G4, NOTE_BF4, NOTE_G4, NOTE_B4, NOTE_G4, NOTE_BF4, NOTE_G4, NOTE_A4, NOTE_G4, NOTE_BF4, NOTE_G4, NOTE_A4, NOTE_G4, NOTE_AF4, NOTE_G4, NOTE_A4, NOTE_G4, NOTE_BF4, NOTE_G4, NOTE_B4, NOTE_G4, NOTE_BF4, NOTE_G4, NOTE_A4, NOTE_G4, NOTE_BF4, NOTE_G4, NOTE_A4, NOTE_G4, NOTE_AF4, NOTE_G4, NOTE_A4, NOTE_G4, NOTE_BF4, NOTE_G4, NOTE_B4, NOTE_G4, NOTE_BF4, NOTE_G4, NOTE_A4, NOTE_G4, NOTE_BF4, NOTE_G4, NOTE_A4, NOTE_G4, NOTE_AF4, NOTE_G4, NOTE_A4, NOTE_G4, NOTE_BF4, NOTE_G4, NOTE_B4, NOTE_G4, NOTE_BF4, NOTE_G4, NOTE_A4, NOTE_G4, NOTE_A4, NOTE_GF4, NOTE_AF4, NOTE_GF4, NOTE_A4, NOTE_GF4, NOTE_A4, NOTE_GF4, NOTE_A4, NOTE_GF4, NOTE_A4, NOTE_GF4, NOTE_A4, NOTE_GF4, NOTE_AF4, NOTE_GF4, NOTE_A4, NOTE_GF4, NOTE_AF4, NOTE_GF4, NOTE_A4, NOTE_GF4, NOTE_A4, NOTE_GF4, NOTE_A4, NOTE_GF4, NOTE_A4, NOTE_GF4, NOTE_A4, NOTE_GF4, NOTE_AF4, NOTE_GF4, NOTE_D5, NOTE_BF4, NOTE_EF5, NOTE_BF4, NOTE_D5, NOTE_BF4, NOTE_DF5, NOTE_BF4, NOTE_D5, NOTE_BF4, NOTE_DF5, NOTE_BF4, NOTE_C5, NOTE_BF4, NOTE_DF5, NOTE_BF4, NOTE_D5, NOTE_BF4, NOTE_EF5, NOTE_BF4, NOTE_D5, NOTE_BF4, NOTE_DF5, NOTE_BF4, NOTE_D5, NOTE_BF4, NOTE_DF5, NOTE_BF4, NOTE_C5, NOTE_BF4, NOTE_DF5, NOTE_BF4, NOTE_BF4, NOTE_G4, NOTE_A4, NOTE_G4, NOTE_AF4, NOTE_G4, NOTE_A4, NOTE_G4, NOTE_BF4, NOTE_G4, NOTE_B4, NOTE_G4, NOTE_BF4, NOTE_G4, NOTE_A4, NOTE_G4, NOTE_BF4, NOTE_G4, NOTE_A4, NOTE_G4, NOTE_AF4, NOTE_G4, NOTE_A4, NOTE_G4, NOTE_BF4, NOTE_G4, NOTE_B4, NOTE_G4, NOTE_BF4, NOTE_G4, NOTE_A4, NOTE_G4
};

const unsigned int castle2Times[] PROGMEM =
{
	81, 81, 81, 81, 81, 81, 81, 81, 81, 81, 81, 81, 81, 81, 81, 81, 81, 81, 81, 81, 81, 81, 81, 81, 81, 81, 81, 81, 81, 81, 81, 81, 81, 81, 81, 81, 81, 81, 81, 81, 81, 81, 81, 81, 81, 81, 81, 81, 81, 81, 81, 81, 81, 81, 81, 81, 81, 81, 81, 81, 81, 81, 81, 81, 81, 81, 81, 81, 81, 81, 81, 81, 81, 81, 81, 81, 81, 81, 81, 81, 81, 81, 81, 81, 81, 81, 81, 81, 81, 81, 81, 81, 81, 81, 81, 81, 81, 81, 81, 81, 81, 81, 81, 81, 81, 81, 81, 81, 81, 81, 81, 81, 81, 81, 81, 81, 81, 81, 81, 81, 81, 81, 81, 81, 81, 81, 81, 81, 81, 81, 81, 81, 81, 81, 81, 81, 81, 81, 81, 81, 81, 81, 81, 81, 81, 81, 81, 81, 81, 81, 81, 81, 81, 81, 81, 81, 81, 81, 81, 81, 81, 81, 81, 81, 81, 81, 81, 81, 81, 81, 81, 81, 81, 81, 81, 81, 81, 81, 81, 81, 81, 81, 81, 81, 81, 81, 81, 81, 81, 81, 81, 81, 81, 81, 81, 81, 81, 81, 81, 81, 81, 81, 81, 81, 81, 81, 81, 81, 81, 81, 81, 81, 81, 81, 81, 81, 81, 81, 81, 81, 81, 81, 81, 81, 81, 81, 81, 81, 81, 81, 81, 81, 81, 81, 81, 81, 81, 81, 81, 81, 81, 81, 81, 81, 81, 81, 81, 81, 81, 81, 81, 81, 81, 81, 81, 81
};


const struct Song castleSong PROGMEM =
{
	castle1Notes,
	castle1Times,
	castle2Notes,
	castle2Times,
	sizeof(castle1Notes) / sizeof(castle1Notes[0]),
	sizeof(castle2Notes) / sizeof(castle2Notes[0])
};



#pragma region Mario
const unsigned int mario1Notes[] PROGMEM =
{
	NOTE_E5, NOTE_E5, NOTE_REST, NOTE_E5, NOTE_C5, NOTE_E5, NOTE_G5, NOTE_REST, NOTE_G4, NOTE_REST, NOTE_C5, NOTE_REST, NOTE_G4, NOTE_REST, NOTE_E4, NOTE_REST, NOTE_A4, NOTE_B4, NOTE_AS4, NOTE_A4, NOTE_G4, NOTE_E5, NOTE_G5, NOTE_A5, NOTE_REST, NOTE_F5, NOTE_G5, NOTE_E5, NOTE_REST, NOTE_C5, NOTE_D5, NOTE_B4, NOTE_REST, NOTE_C5, NOTE_REST, NOTE_G4, NOTE_REST, NOTE_E4, NOTE_REST, NOTE_A4, NOTE_B4, NOTE_AS4, NOTE_A4, NOTE_G4, NOTE_E5, NOTE_G5, NOTE_A5, NOTE_REST, NOTE_F5, NOTE_G5, NOTE_E5, NOTE_REST, NOTE_C5, NOTE_D5, NOTE_B4, NOTE_REST, NOTE_REST, NOTE_G5, NOTE_FS5, NOTE_F5, NOTE_DS5, NOTE_REST, NOTE_E5, NOTE_REST, NOTE_GS4, NOTE_A4, NOTE_C5, NOTE_REST, NOTE_A4, NOTE_C5, NOTE_D5, NOTE_REST, NOTE_G5, NOTE_FS5, NOTE_F5, NOTE_DS5, NOTE_REST, NOTE_E5, NOTE_REST, NOTE_C6, NOTE_REST, NOTE_C6, NOTE_C6, NOTE_REST, NOTE_REST, NOTE_G5, NOTE_FS5, NOTE_F5, NOTE_DS5, NOTE_REST, NOTE_E5, NOTE_REST, NOTE_GS4, NOTE_A4, NOTE_C5, NOTE_REST, NOTE_A4, NOTE_C5, NOTE_D5, NOTE_REST, NOTE_EF5, NOTE_REST, NOTE_D5, NOTE_REST, NOTE_C5, NOTE_REST, NOTE_REST, NOTE_REST, NOTE_G5, NOTE_FS5, NOTE_F5, NOTE_DS5, NOTE_REST, NOTE_E5, NOTE_REST, NOTE_GS4, NOTE_A4, NOTE_C5, NOTE_REST, NOTE_A4, NOTE_C5, NOTE_D5, NOTE_REST, NOTE_G5, NOTE_FS5, NOTE_F5, NOTE_DS5, NOTE_REST, NOTE_E5, NOTE_REST, NOTE_C6, NOTE_REST, NOTE_C6, NOTE_C6, NOTE_REST, NOTE_REST, NOTE_G5, NOTE_FS5, NOTE_F5, NOTE_DS5, NOTE_REST, NOTE_E5, NOTE_REST, NOTE_GS4, NOTE_A4, NOTE_C5, NOTE_REST, NOTE_A4, NOTE_C5, NOTE_D5, NOTE_REST, NOTE_EF5, NOTE_REST, NOTE_D5, NOTE_REST, NOTE_C5, NOTE_REST, NOTE_REST, NOTE_C5, NOTE_C5, NOTE_REST, NOTE_C5, NOTE_REST, NOTE_C5, NOTE_D5, NOTE_REST, NOTE_E5, NOTE_C5, NOTE_REST, NOTE_A4, NOTE_G4, NOTE_REST, NOTE_REST, NOTE_C5, NOTE_C5, NOTE_REST, NOTE_C5, NOTE_REST, NOTE_C5, NOTE_D5, NOTE_E5, NOTE_REST, NOTE_C5, NOTE_C5, NOTE_REST, NOTE_C5, NOTE_REST, NOTE_C5, NOTE_D5, NOTE_REST, NOTE_E5, NOTE_C5, NOTE_REST, NOTE_A4, NOTE_G4, NOTE_REST, NOTE_REST, NOTE_E5, NOTE_E5, NOTE_REST, NOTE_E5, NOTE_REST, NOTE_C5, NOTE_E5, NOTE_REST, NOTE_G5, NOTE_REST, NOTE_G4, NOTE_REST, NOTE_C5, NOTE_REST, NOTE_G4, NOTE_REST, NOTE_E4, NOTE_REST, NOTE_A4, NOTE_B4, NOTE_AS4, NOTE_A4, NOTE_G4, NOTE_E5, NOTE_G5, NOTE_A5, NOTE_REST, NOTE_F5, NOTE_G5, NOTE_E5, NOTE_REST, NOTE_C5, NOTE_D5, NOTE_B4, NOTE_REST, NOTE_C5, NOTE_REST, NOTE_G4, NOTE_REST, NOTE_E4, NOTE_REST, NOTE_A4, NOTE_B4, NOTE_AS4, NOTE_A4, NOTE_G4, NOTE_E5, NOTE_G5, NOTE_A5, NOTE_REST, NOTE_F5, NOTE_G5, NOTE_E5, NOTE_REST, NOTE_C5, NOTE_D5, NOTE_B4, NOTE_REST, NOTE_E5, NOTE_C5, NOTE_REST, NOTE_G4, NOTE_REST, NOTE_REST, NOTE_GS4, NOTE_REST, NOTE_A4, NOTE_F5, NOTE_REST, NOTE_F5, NOTE_A4, NOTE_REST, NOTE_B4, NOTE_A5, NOTE_A5, NOTE_A5, NOTE_G5, NOTE_F5, NOTE_E5, NOTE_C5, NOTE_REST, NOTE_A4, NOTE_G4, NOTE_REST, NOTE_E5, NOTE_C5, NOTE_REST, NOTE_G4, NOTE_REST, NOTE_GS4, NOTE_A4, NOTE_F5, NOTE_REST, NOTE_F5, NOTE_A4, NOTE_REST, NOTE_B4, NOTE_F5, NOTE_REST, NOTE_F5, NOTE_F5, NOTE_E5, NOTE_D5, NOTE_C5, NOTE_G4, NOTE_REST, NOTE_E4, NOTE_C4, NOTE_REST, NOTE_E5, NOTE_C5, NOTE_REST, NOTE_G4, NOTE_REST, NOTE_REST, NOTE_GS4, NOTE_REST, NOTE_A4, NOTE_F5, NOTE_REST, NOTE_F5, NOTE_A4, NOTE_REST, NOTE_B4, NOTE_A5, NOTE_A5, NOTE_A5, NOTE_G5, NOTE_F5, NOTE_E5, NOTE_C5, NOTE_REST, NOTE_A4, NOTE_G4, NOTE_REST, NOTE_E5, NOTE_C5, NOTE_REST, NOTE_G4, NOTE_REST, NOTE_GS4, NOTE_A4, NOTE_F5, NOTE_REST, NOTE_F5, NOTE_A4, NOTE_REST, NOTE_B4, NOTE_F5, NOTE_REST, NOTE_F5, NOTE_F5, NOTE_E5, NOTE_D5, NOTE_C5, NOTE_G4, NOTE_REST, NOTE_E4, NOTE_C4, NOTE_REST
};

const unsigned int mario1Times[] PROGMEM =
{
	150, 150, 150, 300, 150, 300, 300, 300, 300, 300, 300, 150, 300, 150, 300, 150, 300, 300, 150, 300, 200, 200, 200, 150, 150, 150, 300, 150, 150, 150, 150, 150, 300, 300, 150, 300, 150, 300, 150, 300, 300, 150, 300, 200, 200, 200, 150, 150, 150, 300, 150, 150, 150, 150, 150, 300, 300, 150, 150, 150, 150, 150, 150, 150, 150, 150, 150, 150, 150, 150, 150, 300, 150, 150, 150, 150, 150, 150, 150, 150, 150, 150, 300, 300, 300, 150, 150, 150, 150, 150, 150, 150, 150, 150, 150, 150, 150, 150, 150, 300, 300, 150, 300, 150, 300, 300, 600, 300, 150, 150, 150, 150, 150, 150, 150, 150, 150, 150, 150, 150, 150, 150, 300, 150, 150, 150, 150, 150, 150, 150, 150, 150, 150, 300, 300, 300, 150, 150, 150, 150, 150, 150, 150, 150, 150, 150, 150, 150, 150, 150, 300, 300, 150, 300, 150, 300, 300, 600, 150, 150, 150, 150, 150, 150, 150, 150, 150, 150, 150, 150, 150, 150, 300, 150, 150, 150, 150, 150, 150, 150, 150, 1200, 150, 150, 150, 150, 150, 150, 150, 150, 150, 150, 150, 150, 150, 150, 300, 150, 150, 150, 150, 150, 150, 150, 150, 300, 300, 300, 300, 300, 150, 150, 300, 300, 150, 300, 300, 150, 300, 200, 200, 200, 150, 150, 150, 300, 150, 150, 150, 150, 150, 300, 300, 150, 150, 300, 300, 150, 300, 300, 150, 300, 200, 200, 200, 150, 150, 150, 300, 150, 150, 150, 150, 150, 300, 150, 150, 150, 150, 150, 150, 150, 150, 150, 150, 150, 150, 300, 300, 200, 200, 200, 200, 200, 200, 150, 150, 150, 150, 300, 300, 150, 150, 150, 150, 300, 300, 150, 150, 150, 150, 300, 300, 150, 150, 150, 150, 200, 200, 200, 150, 150, 150, 150, 300, 300, 150, 150, 150, 150, 150, 150, 150, 150, 150, 150, 150, 150, 300, 300, 200, 200, 200, 200, 200, 200, 150, 150, 150, 150, 300, 300, 150, 150, 150, 150, 300, 300, 150, 150, 150, 150, 300, 300, 150, 150, 150, 150, 200, 200, 200, 150, 150, 150, 150, 300, 300
};

const unsigned int mario2Notes[] PROGMEM =
{
	NOTE_FS4, NOTE_FS4, NOTE_REST, NOTE_FS4, NOTE_FS4, NOTE_FS4, NOTE_B4, NOTE_REST, NOTE_REST, NOTE_E4, NOTE_REST, NOTE_C4, NOTE_REST, NOTE_G3, NOTE_REST, NOTE_C4, NOTE_D4, NOTE_CS4, NOTE_C4, NOTE_C4, NOTE_G4, NOTE_B4, NOTE_C5, NOTE_REST, NOTE_A4, NOTE_B4, NOTE_G4, NOTE_REST, NOTE_E4, NOTE_F4, NOTE_D4, NOTE_REST, NOTE_E4, NOTE_REST, NOTE_C4, NOTE_REST, NOTE_G3, NOTE_REST, NOTE_C4, NOTE_D4, NOTE_CS4, NOTE_C4, NOTE_C4, NOTE_G4, NOTE_B4, NOTE_C5, NOTE_REST, NOTE_A4, NOTE_B4, NOTE_G4, NOTE_REST, NOTE_E4, NOTE_F4, NOTE_D4, NOTE_REST, NOTE_REST, NOTE_E5, NOTE_DS5, NOTE_D5, NOTE_B4, NOTE_REST, NOTE_C5, NOTE_REST, NOTE_E4, NOTE_F4, NOTE_G4, NOTE_REST, NOTE_C4, NOTE_E4, NOTE_F4, NOTE_REST, NOTE_E5, NOTE_DS5, NOTE_D5, NOTE_B4, NOTE_REST, NOTE_C5, NOTE_REST, NOTE_E5, NOTE_REST, NOTE_E5, NOTE_E5, NOTE_REST, NOTE_REST, NOTE_E5, NOTE_DS5, NOTE_D5, NOTE_B4, NOTE_REST, NOTE_C5, NOTE_REST, NOTE_E4, NOTE_F4, NOTE_G4, NOTE_REST, NOTE_C4, NOTE_E4, NOTE_F4, NOTE_REST, NOTE_AF4, NOTE_REST, NOTE_F4, NOTE_REST, NOTE_E4, NOTE_REST, NOTE_REST, NOTE_REST, NOTE_E5, NOTE_DS5, NOTE_D5, NOTE_B4, NOTE_REST, NOTE_C5, NOTE_REST, NOTE_E4, NOTE_F4, NOTE_G4, NOTE_REST, NOTE_C4, NOTE_E4, NOTE_F4, NOTE_REST, NOTE_E5, NOTE_DS5, NOTE_D5, NOTE_B4, NOTE_REST, NOTE_C5, NOTE_REST, NOTE_E5, NOTE_REST, NOTE_E5, NOTE_E5, NOTE_REST, NOTE_REST, NOTE_E5, NOTE_DS5, NOTE_D5, NOTE_B4, NOTE_REST, NOTE_C5, NOTE_REST, NOTE_E4, NOTE_F4, NOTE_G4, NOTE_REST, NOTE_C4, NOTE_E4, NOTE_F4, NOTE_REST, NOTE_AF4, NOTE_REST, NOTE_F4, NOTE_REST, NOTE_E4, NOTE_REST, NOTE_REST, NOTE_AF4, NOTE_AF4, NOTE_REST, NOTE_AF4, NOTE_REST, NOTE_AF4, NOTE_BF4, NOTE_REST, NOTE_G4, NOTE_E4, NOTE_REST, NOTE_E4, NOTE_C4, NOTE_REST, NOTE_REST, NOTE_AF4, NOTE_AF4, NOTE_REST, NOTE_AF4, NOTE_REST, NOTE_AF4, NOTE_BF4, NOTE_C5, NOTE_REST, NOTE_AF4, NOTE_AF4, NOTE_REST, NOTE_AF4, NOTE_REST, NOTE_AF4, NOTE_BF4, NOTE_REST, NOTE_G4, NOTE_E4, NOTE_REST, NOTE_E4, NOTE_C4, NOTE_REST, NOTE_REST, NOTE_FS4, NOTE_FS4, NOTE_REST, NOTE_FS4, NOTE_REST, NOTE_FS4, NOTE_FS4, NOTE_REST, NOTE_B4, NOTE_REST, NOTE_REST, NOTE_E4, NOTE_REST, NOTE_C4, NOTE_REST, NOTE_G3, NOTE_REST, NOTE_C4, NOTE_D4, NOTE_CS4, NOTE_C4, NOTE_C4, NOTE_G4, NOTE_B4, NOTE_C5, NOTE_REST, NOTE_A4, NOTE_B4, NOTE_G4, NOTE_REST, NOTE_E4, NOTE_F4, NOTE_D4, NOTE_REST, NOTE_E4, NOTE_REST, NOTE_C4, NOTE_REST, NOTE_G3, NOTE_REST, NOTE_C4, NOTE_D4, NOTE_CS4, NOTE_C4, NOTE_C4, NOTE_G4, NOTE_B4, NOTE_C5, NOTE_REST, NOTE_A4, NOTE_B4, NOTE_G4, NOTE_REST, NOTE_E4, NOTE_F4, NOTE_D4, NOTE_REST, NOTE_C5, NOTE_A4, NOTE_REST, NOTE_E4, NOTE_REST, NOTE_REST, NOTE_E4, NOTE_REST, NOTE_F4, NOTE_C5, NOTE_REST, NOTE_C5, NOTE_F4, NOTE_REST, NOTE_G4, NOTE_F5, NOTE_F5, NOTE_F5, NOTE_E5, NOTE_D5, NOTE_C5, NOTE_A4, NOTE_REST, NOTE_F4, NOTE_E4, NOTE_REST, NOTE_C5, NOTE_A4, NOTE_REST, NOTE_E4, NOTE_REST, NOTE_E4, NOTE_F4, NOTE_C5, NOTE_REST, NOTE_C5, NOTE_F4, NOTE_REST, NOTE_G4, NOTE_D5, NOTE_REST, NOTE_D5, NOTE_D5, NOTE_C5, NOTE_B4, NOTE_G4, NOTE_E4, NOTE_REST, NOTE_C4, NOTE_C4, NOTE_REST, NOTE_C5, NOTE_A4, NOTE_REST, NOTE_E4, NOTE_REST, NOTE_REST, NOTE_E4, NOTE_REST, NOTE_F4, NOTE_C5, NOTE_REST, NOTE_C5, NOTE_F4, NOTE_REST, NOTE_G4, NOTE_F5, NOTE_F5, NOTE_F5, NOTE_E5, NOTE_D5, NOTE_C5, NOTE_A4, NOTE_REST, NOTE_F4, NOTE_E4, NOTE_REST, NOTE_C5, NOTE_A4, NOTE_REST, NOTE_E4, NOTE_REST, NOTE_E4, NOTE_F4, NOTE_C5, NOTE_REST, NOTE_C5, NOTE_F4, NOTE_REST, NOTE_G4, NOTE_D5, NOTE_REST, NOTE_D5, NOTE_D5, NOTE_C5, NOTE_B4, NOTE_G4, NOTE_E4, NOTE_REST, NOTE_C4, NOTE_C4, NOTE_REST
};

const unsigned int mario2Times[] PROGMEM =
{
	150, 150, 150, 300, 150, 300, 300, 300, 600, 300, 150, 300, 150, 300, 150, 300, 300, 150, 300, 200, 200, 200, 150, 150, 150, 300, 150, 150, 150, 150, 150, 300, 300, 150, 300, 150, 300, 150, 300, 300, 150, 300, 200, 200, 200, 150, 150, 150, 300, 150, 150, 150, 150, 150, 300, 300, 150, 150, 150, 150, 150, 150, 150, 150, 150, 150, 150, 150, 150, 150, 300, 150, 150, 150, 150, 150, 150, 150, 150, 150, 150, 300, 300, 300, 150, 150, 150, 150, 150, 150, 150, 150, 150, 150, 150, 150, 150, 150, 300, 300, 150, 300, 150, 300, 300, 600, 300, 150, 150, 150, 150, 150, 150, 150, 150, 150, 150, 150, 150, 150, 150, 300, 150, 150, 150, 150, 150, 150, 150, 150, 150, 150, 300, 300, 300, 150, 150, 150, 150, 150, 150, 150, 150, 150, 150, 150, 150, 150, 150, 300, 300, 150, 300, 150, 300, 300, 600, 150, 150, 150, 150, 150, 150, 150, 150, 150, 150, 150, 150, 150, 150, 300, 150, 150, 150, 150, 150, 150, 150, 150, 1200, 150, 150, 150, 150, 150, 150, 150, 150, 150, 150, 150, 150, 150, 150, 300, 150, 150, 150, 150, 150, 150, 150, 150, 300, 300, 600, 300, 150, 150, 300, 300, 150, 300, 300, 150, 300, 200, 200, 200, 150, 150, 150, 300, 150, 150, 150, 150, 150, 300, 300, 150, 150, 300, 300, 150, 300, 300, 150, 300, 200, 200, 200, 150, 150, 150, 300, 150, 150, 150, 150, 150, 300, 150, 150, 150, 150, 150, 150, 150, 150, 150, 150, 150, 150, 300, 300, 200, 200, 200, 200, 200, 200, 150, 150, 150, 150, 300, 300, 150, 150, 150, 150, 300, 300, 150, 150, 150, 150, 300, 300, 150, 150, 150, 150, 200, 200, 200, 150, 150, 150, 150, 300, 300, 150, 150, 150, 150, 150, 150, 150, 150, 150, 150, 150, 150, 300, 300, 200, 200, 200, 200, 200, 200, 150, 150, 150, 150, 300, 300, 150, 150, 150, 150, 300, 300, 150, 150, 150, 150, 300, 300, 150, 150, 150, 150, 200, 200, 200, 150, 150, 150, 150, 300, 300
};

const struct Song marioSong PROGMEM =
{
	mario1Notes,
	mario1Times,
	mario2Notes,
	mario2Times,
	sizeof(mario1Notes) / sizeof(mario1Notes[0]),
	sizeof(mario2Notes) / sizeof(mario2Notes[0])
};
#pragma endregion

#pragma region Bach Double
const unsigned int bachDouble1Notes[] PROGMEM =
{
	NOTE_REST, NOTE_REST, NOTE_REST, NOTE_REST, NOTE_A4, NOTE_B4, NOTE_C5, NOTE_D5, NOTE_E5, NOTE_REST, NOTE_A5, NOTE_REST, NOTE_GS5, NOTE_REST, NOTE_E5, NOTE_REST, NOTE_B4, NOTE_REST, NOTE_D5, NOTE_REST, NOTE_CS5, NOTE_REST, NOTE_A4, NOTE_REST, NOTE_G5, NOTE_REST, NOTE_FS5, NOTE_E5, NOTE_FS5, NOTE_REST, NOTE_D5, NOTE_REST, NOTE_B4, NOTE_REST, NOTE_D5, NOTE_REST, NOTE_F5, NOTE_REST, NOTE_A4, NOTE_REST, NOTE_GS4, NOTE_REST, NOTE_E5, NOTE_REST, NOTE_A4, NOTE_REST, NOTE_D5, NOTE_REST, NOTE_C5, NOTE_REST, NOTE_B4, NOTE_C5, NOTE_B4, NOTE_C5, NOTE_B4, NOTE_A4, NOTE_GS4, NOTE_A4, NOTE_B4, NOTE_C5, NOTE_D5, NOTE_E5, NOTE_F5, NOTE_G5, NOTE_REST, NOTE_G4, NOTE_REST, NOTE_G5, NOTE_REST, NOTE_E5, NOTE_REST, NOTE_A4, NOTE_REST, NOTE_G5, NOTE_REST, NOTE_F5, NOTE_E5, NOTE_D5, NOTE_E5, NOTE_F5, NOTE_E5, NOTE_F5, NOTE_G5, NOTE_A5, NOTE_REST, NOTE_G5, NOTE_FS5, NOTE_E5, NOTE_FS5, NOTE_D5, NOTE_E5, NOTE_FS5, NOTE_G5, NOTE_REST, NOTE_F5, NOTE_E5, NOTE_F5, NOTE_G5, NOTE_A5, NOTE_BF5, NOTE_G5, NOTE_A5, NOTE_BF5, NOTE_A5, NOTE_G5, NOTE_F5, NOTE_E5, NOTE_D5, NOTE_CS5, NOTE_D5, NOTE_REST, NOTE_D6, NOTE_REST, NOTE_CS6, NOTE_REST, NOTE_D6, NOTE_REST, NOTE_REST, NOTE_F5, NOTE_REST, NOTE_E5, NOTE_REST, NOTE_A5, NOTE_REST, NOTE_A4, NOTE_REST, NOTE_D5, NOTE_E5, NOTE_FS5, NOTE_G5, NOTE_A5, NOTE_FS5, NOTE_G5, NOTE_REST, NOTE_D5, NOTE_C5, NOTE_D5, NOTE_B4, NOTE_C5, NOTE_D5, NOTE_G4, NOTE_REST, NOTE_C5, NOTE_REST, NOTE_G5, NOTE_REST, NOTE_FS5, NOTE_G5, NOTE_A5, NOTE_REST, NOTE_C5, NOTE_REST, NOTE_BF4, NOTE_C5, NOTE_D5, NOTE_REST, NOTE_A5, NOTE_REST, NOTE_G5, NOTE_REST, NOTE_F5, NOTE_REST, NOTE_E5, NOTE_D5, NOTE_CS5, NOTE_D5, NOTE_B4, NOTE_CS5, NOTE_D5, NOTE_E5, NOTE_F5, NOTE_G5, NOTE_A5, NOTE_REST, NOTE_D6, NOTE_REST, NOTE_CS6, NOTE_REST, NOTE_A5, NOTE_REST, NOTE_E5, NOTE_REST, NOTE_G5, NOTE_REST, NOTE_FS5, NOTE_REST, NOTE_D5, NOTE_REST, NOTE_C6, NOTE_REST, NOTE_B5, NOTE_A5, NOTE_B5, NOTE_REST, NOTE_G5, NOTE_REST, NOTE_E5, NOTE_REST, NOTE_G5, NOTE_REST, NOTE_BF5, NOTE_REST, NOTE_D5, NOTE_REST, NOTE_CS5, NOTE_REST, NOTE_A5, NOTE_REST, NOTE_D5, NOTE_REST, NOTE_G5, NOTE_REST, NOTE_F5, NOTE_REST, NOTE_E5, NOTE_F5, NOTE_E5, NOTE_F5, NOTE_E5, NOTE_D5, NOTE_REST, NOTE_C5, NOTE_BF4, NOTE_A4, NOTE_G4, NOTE_F4, NOTE_E4, NOTE_F4, NOTE_REST, NOTE_A5, NOTE_REST, NOTE_E4, NOTE_REST, NOTE_G5, NOTE_REST, NOTE_D4, NOTE_G5, NOTE_F5, NOTE_E5, NOTE_D5, NOTE_C5, NOTE_BF4, NOTE_A4, NOTE_BF4, NOTE_REST, NOTE_D6, NOTE_REST, NOTE_A4, NOTE_REST, NOTE_C6, NOTE_REST, NOTE_G4, NOTE_C6, NOTE_BF5, NOTE_A5, NOTE_G5, NOTE_F5, NOTE_E5, NOTE_D5, NOTE_E5, NOTE_BF5, NOTE_A5, NOTE_G5, NOTE_A5, NOTE_E5, NOTE_D5, NOTE_CS5, NOTE_D5, NOTE_A5, NOTE_G5, NOTE_F5, NOTE_G5, NOTE_D5, NOTE_CS5, NOTE_B4, NOTE_CS5, NOTE_G5, NOTE_F5, NOTE_E5, NOTE_F5, NOTE_E5, NOTE_D5, NOTE_F5, NOTE_E5, NOTE_D5, NOTE_CS5, NOTE_B4, NOTE_A4, NOTE_REST, NOTE_REST, NOTE_REST, NOTE_F4, NOTE_D4, NOTE_F4, NOTE_G4, NOTE_E4, NOTE_CS4, NOTE_E4, NOTE_F4, NOTE_REST, NOTE_D4, NOTE_REST, NOTE_D5, NOTE_REST, NOTE_BF4, NOTE_G4, NOTE_BF4, NOTE_C5, NOTE_A4, NOTE_FS4, NOTE_A4, NOTE_BF4, NOTE_REST, NOTE_G4, NOTE_REST, NOTE_BF5, NOTE_REST, NOTE_G4, NOTE_F4, NOTE_E4, NOTE_F4, NOTE_REST, NOTE_A5, NOTE_REST, NOTE_F4, NOTE_E4, NOTE_D4, NOTE_E4, NOTE_REST, NOTE_G5, NOTE_REST, NOTE_E4, NOTE_D4, NOTE_CS4, NOTE_D4, NOTE_REST, NOTE_D5, NOTE_REST, NOTE_F5, NOTE_E5, NOTE_D5, NOTE_E5, NOTE_G5, NOTE_F5, NOTE_E5, NOTE_F5, NOTE_A4, NOTE_B4, NOTE_CS5, NOTE_D5, NOTE_E5, NOTE_F5, NOTE_D5, NOTE_G4, NOTE_D5, NOTE_F5, NOTE_REST, NOTE_D5, NOTE_B4, NOTE_G4, NOTE_E5, NOTE_G4, NOTE_A4, NOTE_B4, NOTE_C5, NOTE_D5, NOTE_E5, NOTE_C5, NOTE_F4, NOTE_C5, NOTE_EF5, NOTE_REST, NOTE_C5, NOTE_A4, NOTE_F4, NOTE_D5, NOTE_REST, NOTE_F5, NOTE_REST, NOTE_G5, NOTE_REST, NOTE_D5, NOTE_REST, NOTE_E5, NOTE_REST, NOTE_G5, NOTE_REST, NOTE_A5, NOTE_REST, NOTE_E5, NOTE_REST, NOTE_F5, NOTE_G5, NOTE_F5, NOTE_E5, NOTE_D5, NOTE_C5, NOTE_BF4, NOTE_A4, NOTE_G4, NOTE_A5, NOTE_G5, NOTE_F5, NOTE_E5, NOTE_D5, NOTE_C5, NOTE_BF4, NOTE_A4, NOTE_REST, NOTE_F5, NOTE_G5, NOTE_A5, NOTE_REST, NOTE_F4, NOTE_REST, NOTE_E4, NOTE_D4, NOTE_C4, NOTE_B3, NOTE_REST, NOTE_B4, NOTE_REST, NOTE_E5, NOTE_F5, NOTE_G5, NOTE_REST, NOTE_E4, NOTE_REST, NOTE_D4, NOTE_C4, NOTE_B3, NOTE_A3, NOTE_REST, NOTE_A4, NOTE_REST, NOTE_D5, NOTE_F5, NOTE_A5, NOTE_D6, NOTE_A5, NOTE_F5, NOTE_D5, NOTE_A4, NOTE_C5, NOTE_E5, NOTE_A5, NOTE_C6, NOTE_A5, NOTE_E5, NOTE_C5, NOTE_A4, NOTE_B4, NOTE_D5, NOTE_F5, NOTE_B5, NOTE_F5, NOTE_D5, NOTE_A4, NOTE_GS4, NOTE_B4, NOTE_D5, NOTE_E5, NOTE_B5, NOTE_REST, NOTE_REST, NOTE_REST, NOTE_REST, NOTE_REST, NOTE_REST, NOTE_REST, NOTE_REST, NOTE_REST, NOTE_D4, NOTE_C4, NOTE_B3, NOTE_C4, NOTE_REST, NOTE_E5, NOTE_REST, NOTE_B3, NOTE_REST, NOTE_D5, NOTE_REST, NOTE_A3, NOTE_D5, NOTE_C5, NOTE_B4, NOTE_A4, NOTE_G4, NOTE_F4, NOTE_E4, NOTE_F4, NOTE_REST, NOTE_A5, NOTE_REST, NOTE_E4, NOTE_REST, NOTE_G5, NOTE_REST, NOTE_D4, NOTE_G5, NOTE_F5, NOTE_E5, NOTE_D5, NOTE_C5, NOTE_B4, NOTE_A4, NOTE_B4, NOTE_F5, NOTE_E5, NOTE_D5, NOTE_E5, NOTE_B4, NOTE_A4, NOTE_GS4, NOTE_A4, NOTE_E5, NOTE_D5, NOTE_C5, NOTE_D5, NOTE_A4, NOTE_GS4, NOTE_FS4, NOTE_GS4, NOTE_D5, NOTE_C5, NOTE_B4, NOTE_C5, NOTE_B4, NOTE_A4, NOTE_C5, NOTE_B4, NOTE_A4, NOTE_GS4, NOTE_FS4, NOTE_E4, NOTE_REST, NOTE_REST, NOTE_A4, NOTE_B4, NOTE_C5, NOTE_D5, NOTE_E5, NOTE_REST, NOTE_A5, NOTE_REST, NOTE_GS5, NOTE_REST, NOTE_E5, NOTE_REST, NOTE_B4, NOTE_REST, NOTE_D5, NOTE_REST, NOTE_CS5, NOTE_REST, NOTE_A4, NOTE_REST, NOTE_G5, NOTE_REST, NOTE_FS5, NOTE_E5, NOTE_FS5, NOTE_REST, NOTE_D5, NOTE_REST, NOTE_B4, NOTE_REST, NOTE_D5, NOTE_REST, NOTE_F5, NOTE_REST, NOTE_A4, NOTE_REST, NOTE_GS4, NOTE_REST, NOTE_E5, NOTE_REST, NOTE_A4, NOTE_REST, NOTE_D5, NOTE_REST, NOTE_C5, NOTE_REST, NOTE_B4, NOTE_C5, NOTE_B4, NOTE_C5, NOTE_B4, NOTE_A4, NOTE_REST, NOTE_REST, NOTE_REST, NOTE_F4, NOTE_E4, NOTE_D4, NOTE_C4, NOTE_REST, NOTE_A4, NOTE_REST, NOTE_D4, NOTE_REST, NOTE_B4, NOTE_REST, NOTE_C4, NOTE_REST, NOTE_A4, NOTE_REST, NOTE_B3, NOTE_REST, NOTE_GS4, NOTE_REST, NOTE_C4, NOTE_REST, NOTE_A4, NOTE_REST, NOTE_E4, NOTE_REST, NOTE_B4, NOTE_REST, NOTE_C5, NOTE_REST, NOTE_A4, NOTE_REST, NOTE_REST, NOTE_G5, NOTE_F5, NOTE_E5, NOTE_D5, NOTE_F5, NOTE_A5, NOTE_D6, NOTE_E5, NOTE_G5, NOTE_A5, NOTE_CS6, NOTE_D6, NOTE_A5, NOTE_F5, NOTE_D5, NOTE_CS5, NOTE_E5, NOTE_G5, NOTE_A5, NOTE_D5, NOTE_F5, NOTE_A5, NOTE_D6, NOTE_E5, NOTE_G5, NOTE_A5, NOTE_CS6, NOTE_D6, NOTE_A5, NOTE_F5, NOTE_D5, NOTE_D4, NOTE_E4, NOTE_F4, NOTE_D4, NOTE_E4, NOTE_D4, NOTE_E4, NOTE_F4, NOTE_E4, NOTE_FS4, NOTE_G4, NOTE_E4, NOTE_FS4, NOTE_E4, NOTE_FS4, NOTE_G4, NOTE_FS4, NOTE_G4, NOTE_A4, NOTE_FS4, NOTE_G4, NOTE_REST, NOTE_D5, NOTE_REST, NOTE_REST, NOTE_BF5, NOTE_REST, NOTE_A5, NOTE_G5, NOTE_FS5, NOTE_E5, NOTE_FS5, NOTE_D5, NOTE_E5, NOTE_FS5, NOTE_G5, NOTE_REST, NOTE_F5, NOTE_G5, NOTE_A5, NOTE_G5, NOTE_BF5, NOTE_A5, NOTE_G5, NOTE_A5, NOTE_REST, NOTE_G5, NOTE_FS5, NOTE_E5, NOTE_D5, NOTE_C5, NOTE_BF4, NOTE_A4, NOTE_BF4, NOTE_REST, NOTE_C5, NOTE_REST, NOTE_A4, NOTE_REST, NOTE_G4, NOTE_REST, NOTE_G4, NOTE_G5, NOTE_FS5, NOTE_E5, NOTE_D5, NOTE_C5, NOTE_BF4, NOTE_A4, NOTE_G4, NOTE_BF4, NOTE_D5, NOTE_G5, NOTE_A4, NOTE_C5, NOTE_D5, NOTE_FS5, NOTE_G5, NOTE_D5, NOTE_BF4, NOTE_G4, NOTE_FS4, NOTE_A4, NOTE_C5, NOTE_D5, NOTE_G4, NOTE_BF4, NOTE_D5, NOTE_G5, NOTE_A4, NOTE_C5, NOTE_D5, NOTE_FS5, NOTE_G5, NOTE_D5, NOTE_BF4, NOTE_G4, NOTE_G3, NOTE_AF4, NOTE_G4, NOTE_F4, NOTE_EF4, NOTE_REST, NOTE_C5, NOTE_REST, NOTE_F4, NOTE_REST, NOTE_D5, NOTE_REST, NOTE_EF4, NOTE_REST, NOTE_C5, NOTE_REST, NOTE_D4, NOTE_REST, NOTE_B4, NOTE_REST, NOTE_EF4, NOTE_REST, NOTE_C5, NOTE_REST, NOTE_G4, NOTE_REST, NOTE_D5, NOTE_REST, NOTE_EF5, NOTE_REST, NOTE_C5, NOTE_REST, NOTE_REST, NOTE_G4, NOTE_F4, NOTE_G4, NOTE_A4, NOTE_G4, NOTE_A4, NOTE_BF4, NOTE_A4, NOTE_BF4, NOTE_C5, NOTE_A4, NOTE_BF4, NOTE_A4, NOTE_BF4, NOTE_C5, NOTE_D5, NOTE_C5, NOTE_D5, NOTE_E5, NOTE_FS5, NOTE_E5, NOTE_FS5, NOTE_G5, NOTE_FS5, NOTE_G5, NOTE_A5, NOTE_FS5, NOTE_G5, NOTE_C5, NOTE_BF4, NOTE_A4, NOTE_BF4, NOTE_D5, NOTE_G5, NOTE_REST, NOTE_A4, NOTE_REST, NOTE_G5, NOTE_REST, NOTE_A4, NOTE_REST, NOTE_D4, NOTE_REST, NOTE_F5, NOTE_REST, NOTE_F4, NOTE_REST, NOTE_EF5, NOTE_REST, NOTE_F4, NOTE_REST, NOTE_BF3, NOTE_REST, NOTE_D5, NOTE_REST, NOTE_E4, NOTE_F4, NOTE_G4, NOTE_BF4, NOTE_CS5, NOTE_BF5, NOTE_A5, NOTE_G5, NOTE_F4, NOTE_G4, NOTE_A4, NOTE_CS5, NOTE_D5, NOTE_A5, NOTE_G5, NOTE_F5, NOTE_G4, NOTE_A4, NOTE_CS5, NOTE_D5, NOTE_E5, NOTE_G5, NOTE_F5, NOTE_E5, NOTE_A4, NOTE_CS5, NOTE_D5, NOTE_E5, NOTE_F5, NOTE_REST, NOTE_D5, NOTE_REST, NOTE_G5, NOTE_A5, NOTE_BF5, NOTE_REST, NOTE_G4, NOTE_REST, NOTE_F4, NOTE_E4, NOTE_D4, NOTE_C4, NOTE_REST, NOTE_C5, NOTE_REST, NOTE_F5, NOTE_G5, NOTE_A5, NOTE_REST, NOTE_F4, NOTE_REST, NOTE_EF4, NOTE_D4, NOTE_C4, NOTE_BF3, NOTE_REST, NOTE_BF4, NOTE_REST, NOTE_C5, NOTE_BF4, NOTE_A4, NOTE_G4, NOTE_F4, NOTE_E4, NOTE_D4, NOTE_C4, NOTE_D5, NOTE_C5, NOTE_BF4, NOTE_A4, NOTE_G4, NOTE_F4, NOTE_E4, NOTE_D4, NOTE_REST, NOTE_D5, NOTE_REST, NOTE_EF5, NOTE_REST, NOTE_BF4, NOTE_REST, NOTE_C5, NOTE_REST, NOTE_EF5, NOTE_REST, NOTE_F5, NOTE_REST, NOTE_C5, NOTE_REST, NOTE_D5, NOTE_F5, NOTE_G5, NOTE_A5, NOTE_BF5, NOTE_C6, NOTE_D6, NOTE_BF5, NOTE_E5, NOTE_BF5, NOTE_D6, NOTE_REST, NOTE_BF5, NOTE_G5, NOTE_E5, NOTE_CS6, NOTE_E5, NOTE_F5, NOTE_G5, NOTE_A5, NOTE_BF5, NOTE_C6, NOTE_A5, NOTE_D5, NOTE_A5, NOTE_C6, NOTE_REST, NOTE_A5, NOTE_FS5, NOTE_D5, NOTE_BF5, NOTE_REST, NOTE_G5, NOTE_REST, NOTE_D5, NOTE_REST, NOTE_D6, NOTE_REST, NOTE_A5, NOTE_F5, NOTE_D5, NOTE_REST, NOTE_BF4, NOTE_REST, NOTE_G4, NOTE_REST, NOTE_G5, NOTE_REST, NOTE_E5, NOTE_CS5, NOTE_A4, NOTE_G4, NOTE_F4, NOTE_E4, NOTE_F4, NOTE_REST, NOTE_A5, NOTE_REST, NOTE_E4, NOTE_REST, NOTE_G5, NOTE_REST, NOTE_D4, NOTE_G5, NOTE_F5, NOTE_E5, NOTE_D5, NOTE_C5, NOTE_BF4, NOTE_A4, NOTE_BF4, NOTE_REST, NOTE_D6, NOTE_REST, NOTE_A4, NOTE_REST, NOTE_C6, NOTE_REST, NOTE_G4, NOTE_C6, NOTE_BF5, NOTE_A5, NOTE_G5, NOTE_F5, NOTE_E5, NOTE_D5, NOTE_E5, NOTE_BF5, NOTE_A5, NOTE_G5, NOTE_A5, NOTE_E5, NOTE_D5, NOTE_CS5, NOTE_D5, NOTE_A5, NOTE_G5, NOTE_F5, NOTE_G5, NOTE_D5, NOTE_CS5, NOTE_B4, NOTE_CS5, NOTE_G5, NOTE_F5, NOTE_E5, NOTE_F5, NOTE_E5, NOTE_D5, NOTE_F5, NOTE_E5, NOTE_D5, NOTE_CS5, NOTE_B4, NOTE_A4, NOTE_REST, NOTE_REST, NOTE_REST, NOTE_F4, NOTE_D4, NOTE_F4, NOTE_G4, NOTE_E4, NOTE_CS4, NOTE_E4, NOTE_F4, NOTE_REST, NOTE_D4, NOTE_REST, NOTE_D5, NOTE_REST, NOTE_BF4, NOTE_G4, NOTE_BF4, NOTE_C5, NOTE_A4, NOTE_FS4, NOTE_A4, NOTE_BF4, NOTE_REST, NOTE_G4, NOTE_REST, NOTE_BF5, NOTE_REST, NOTE_G4, NOTE_F4, NOTE_E4, NOTE_F4, NOTE_REST, NOTE_A5, NOTE_REST, NOTE_F4, NOTE_E4, NOTE_D4, NOTE_E4, NOTE_REST, NOTE_G5, NOTE_REST, NOTE_E4, NOTE_D4, NOTE_CS4, NOTE_D4, NOTE_REST, NOTE_D5, NOTE_REST, NOTE_F5, NOTE_E5, NOTE_D5, NOTE_E5, NOTE_G5, NOTE_F5, NOTE_E5, NOTE_F5, NOTE_G5, NOTE_F5, NOTE_E5, NOTE_D5, NOTE_REST, NOTE_D6, NOTE_REST, NOTE_CS6, NOTE_REST, NOTE_A5, NOTE_REST, NOTE_E5, NOTE_REST, NOTE_G5, NOTE_REST, NOTE_FS5, NOTE_REST, NOTE_D5, NOTE_REST, NOTE_C6, NOTE_REST, NOTE_B5, NOTE_A5, NOTE_B5, NOTE_REST, NOTE_G5, NOTE_REST, NOTE_E5, NOTE_REST, NOTE_G5, NOTE_REST, NOTE_BF5, NOTE_REST, NOTE_D5, NOTE_REST, NOTE_CS5, NOTE_REST, NOTE_A5, NOTE_REST, NOTE_D5, NOTE_REST, NOTE_G5, NOTE_REST, NOTE_F5, NOTE_REST, NOTE_E5, NOTE_REST, NOTE_D5
};

const unsigned int bachDouble1Times[] PROGMEM =
{
	2222, 2222, 2222, 2222, 138, 138, 138, 138, 138, 138, 138, 138, 138, 138, 138, 138, 138, 138, 138, 138, 138, 138, 138, 138, 555, 277, 138, 138, 138, 138, 138, 138, 138, 138, 138, 138, 138, 138, 138, 138, 138, 138, 138, 138, 138, 138, 138, 138, 277, 277, 69, 69, 69, 69, 277, 138, 138, 138, 138, 138, 138, 138, 138, 138, 138, 138, 138, 555, 277, 138, 138, 138, 138, 138, 138, 138, 138, 138, 138, 138, 138, 138, 138, 1111, 138, 138, 138, 138, 138, 138, 138, 138, 1111, 138, 138, 138, 138, 138, 138, 138, 138, 138, 138, 138, 138, 138, 138, 138, 138, 138, 138, 277, 277, 138, 138, 277, 277, 277, 138, 138, 138, 138, 138, 138, 555, 277, 138, 138, 138, 138, 138, 138, 138, 138, 138, 138, 138, 138, 138, 138, 138, 138, 138, 138, 555, 277, 138, 138, 138, 138, 277, 277, 138, 138, 138, 138, 277, 277, 277, 277, 277, 277, 138, 138, 138, 138, 138, 138, 138, 138, 138, 138, 138, 138, 138, 138, 138, 138, 138, 138, 138, 138, 138, 138, 138, 138, 138, 138, 555, 277, 138, 138, 138, 138, 138, 138, 138, 138, 138, 138, 138, 138, 138, 138, 138, 138, 138, 138, 138, 138, 138, 138, 277, 277, 69, 69, 69, 69, 277, 138, 138, 138, 138, 138, 138, 138, 138, 138, 138, 138, 138, 138, 138, 138, 138, 138, 138, 138, 138, 138, 138, 138, 138, 138, 138, 138, 138, 138, 138, 138, 138, 138, 138, 138, 138, 138, 138, 138, 138, 138, 138, 138, 138, 138, 138, 138, 138, 138, 138, 138, 138, 138, 138, 138, 138, 138, 138, 138, 138, 138, 138, 138, 138, 138, 138, 138, 138, 138, 138, 277, 138, 138, 138, 138, 138, 138, 138, 138, 138, 138, 138, 138, 555, 138, 138, 138, 138, 138, 138, 138, 138, 138, 138, 138, 138, 555, 138, 138, 138, 138, 138, 138, 277, 138, 138, 138, 138, 138, 138, 277, 138, 138, 138, 138, 138, 138, 277, 138, 138, 138, 138, 138, 138, 138, 138, 138, 138, 138, 138, 138, 138, 138, 138, 138, 138, 277, 138, 138, 138, 138, 138, 138, 138, 138, 138, 138, 138, 138, 138, 138, 277, 138, 138, 138, 138, 138, 138, 138, 138, 138, 138, 138, 138, 138, 138, 138, 138, 138, 138, 138, 138, 138, 138, 138, 138, 138, 138, 138, 138, 138, 138, 138, 138, 138, 138, 138, 138, 138, 138, 138, 138, 138, 138, 277, 138, 138, 138, 138, 138, 138, 277, 277, 138, 138, 138, 138, 277, 138, 138, 138, 138, 138, 138, 277, 138, 138, 138, 138, 138, 138, 138, 138, 138, 138, 138, 138, 138, 138, 138, 138, 138, 138, 138, 138, 138, 138, 138, 138, 138, 138, 138, 138, 138, 138, 277, 2222, 2222, 2222, 555, 555, 555, 138, 138, 138, 138, 138, 138, 138, 138, 138, 138, 138, 138, 138, 138, 138, 138, 138, 138, 138, 138, 138, 138, 138, 138, 138, 138, 138, 138, 138, 138, 138, 138, 138, 138, 138, 138, 138, 138, 138, 138, 138, 138, 138, 138, 138, 138, 138, 138, 138, 138, 138, 138, 138, 138, 138, 138, 138, 138, 138, 138, 138, 138, 138, 138, 138, 138, 277, 138, 138, 138, 138, 138, 138, 138, 138, 138, 138, 138, 138, 138, 138, 138, 138, 138, 138, 138, 138, 555, 277, 138, 138, 138, 138, 138, 138, 138, 138, 138, 138, 138, 138, 138, 138, 138, 138, 138, 138, 138, 138, 138, 138, 277, 277, 69, 69, 69, 69, 277, 138, 138, 277, 138, 138, 138, 138, 138, 138, 138, 138, 138, 138, 138, 138, 138, 138, 138, 138, 138, 138, 138, 138, 138, 138, 138, 138, 138, 138, 138, 138, 138, 138, 138, 138, 138, 138, 138, 138, 138, 138, 138, 138, 138, 138, 138, 138, 138, 138, 138, 138, 138, 138, 138, 138, 138, 138, 138, 138, 138, 138, 138, 138, 138, 138, 138, 138, 138, 138, 138, 138, 138, 138, 138, 138, 138, 138, 138, 138, 138, 138, 138, 138, 138, 138, 138, 138, 138, 138, 138, 138, 277, 138, 138, 138, 138, 138, 138, 138, 138, 138, 138, 1111, 138, 138, 138, 138, 138, 138, 138, 138, 1111, 138, 138, 138, 138, 138, 138, 138, 138, 277, 138, 104, 34, 277, 138, 104, 34, 138, 138, 138, 138, 138, 138, 138, 138, 138, 138, 138, 138, 138, 138, 138, 138, 138, 138, 138, 138, 138, 138, 138, 138, 138, 138, 138, 138, 138, 138, 138, 138, 138, 138, 138, 138, 138, 138, 138, 138, 138, 138, 138, 138, 138, 138, 138, 138, 138, 138, 138, 138, 138, 138, 138, 138, 138, 138, 138, 138, 138, 138, 138, 138, 138, 138, 138, 138, 138, 138, 138, 138, 138, 138, 138, 138, 138, 138, 138, 138, 138, 138, 138, 138, 138, 138, 138, 138, 138, 138, 138, 138, 138, 138, 138, 138, 138, 138, 138, 138, 138, 138, 277, 277, 138, 138, 555, 277, 138, 138, 138, 138, 277, 277, 138, 138, 555, 277, 138, 138, 138, 138, 138, 138, 138, 138, 138, 138, 138, 138, 138, 138, 138, 138, 138, 138, 138, 138, 138, 138, 138, 138, 138, 138, 138, 138, 138, 138, 138, 138, 138, 138, 138, 138, 277, 277, 138, 138, 138, 138, 277, 138, 138, 138, 138, 138, 138, 277, 277, 138, 138, 138, 138, 277, 138, 138, 138, 138, 138, 138, 277, 138, 138, 138, 138, 138, 138, 138, 138, 138, 138, 138, 138, 138, 138, 138, 138, 138, 138, 138, 138, 138, 138, 138, 138, 138, 138, 138, 138, 138, 138, 138, 138, 138, 138, 138, 138, 138, 138, 138, 138, 138, 138, 277, 138, 138, 138, 138, 138, 138, 138, 138, 138, 138, 138, 138, 138, 138, 277, 138, 138, 138, 138, 138, 138, 138, 138, 138, 138, 277, 277, 138, 138, 555, 277, 138, 138, 138, 138, 277, 277, 138, 138, 138, 138, 138, 138, 138, 138, 138, 138, 138, 138, 138, 138, 138, 138, 138, 138, 138, 138, 138, 138, 138, 138, 138, 138, 138, 138, 138, 138, 138, 138, 138, 138, 138, 138, 138, 138, 138, 138, 138, 138, 138, 138, 138, 138, 138, 138, 138, 138, 138, 138, 138, 138, 138, 138, 138, 138, 138, 138, 138, 138, 138, 138, 138, 138, 138, 138, 277, 138, 138, 138, 138, 138, 138, 138, 138, 138, 138, 138, 138, 555, 138, 138, 138, 138, 138, 138, 138, 138, 138, 138, 138, 138, 555, 138, 138, 138, 138, 138, 138, 277, 138, 138, 138, 138, 138, 138, 277, 138, 138, 138, 138, 138, 138, 277, 138, 138, 138, 138, 138, 138, 138, 138, 138, 138, 138, 138, 138, 138, 138, 138, 138, 138, 138, 138, 138, 138, 138, 138, 138, 138, 138, 138, 555, 277, 138, 138, 138, 138, 138, 138, 138, 138, 138, 138, 138, 138, 138, 138, 138, 138, 138, 138, 138, 138, 138, 138, 277, 277, 277, 277, 1111
};

const unsigned int bachDouble2Notes[] PROGMEM =
{
	NOTE_D4, NOTE_E4, NOTE_F4, NOTE_G4, NOTE_A4, NOTE_REST, NOTE_D5, NOTE_REST, NOTE_CS5, NOTE_REST, NOTE_A4, NOTE_REST, NOTE_E4, NOTE_REST, NOTE_G4, NOTE_REST, NOTE_FS4, NOTE_REST, NOTE_D4, NOTE_REST, NOTE_C5, NOTE_REST, NOTE_B4, NOTE_A4, NOTE_B4, NOTE_REST, NOTE_G4, NOTE_REST, NOTE_E4, NOTE_REST, NOTE_G4, NOTE_REST, NOTE_BF4, NOTE_REST, NOTE_D4, NOTE_REST, NOTE_CS4, NOTE_REST, NOTE_A4, NOTE_REST, NOTE_D4, NOTE_REST, NOTE_G4, NOTE_REST, NOTE_F4, NOTE_REST, NOTE_E4, NOTE_F4, NOTE_E4, NOTE_F4, NOTE_E4, NOTE_D4, NOTE_CS4, NOTE_D4, NOTE_E4, NOTE_FS4, NOTE_GS4, NOTE_A4, NOTE_B4, NOTE_C5, NOTE_B4, NOTE_A4, NOTE_B4, NOTE_C5, NOTE_B4, NOTE_C5, NOTE_D5, NOTE_E5, NOTE_REST, NOTE_D5, NOTE_CS5, NOTE_B4, NOTE_CS5, NOTE_A4, NOTE_B4, NOTE_CS5, NOTE_D5, NOTE_REST, NOTE_C5, NOTE_B4, NOTE_C5, NOTE_D5, NOTE_E5, NOTE_F5, NOTE_D5, NOTE_E5, NOTE_F5, NOTE_E5, NOTE_D5, NOTE_C5, NOTE_B4, NOTE_A4, NOTE_GS4, NOTE_A4, NOTE_REST, NOTE_A5, NOTE_REST, NOTE_GS5, NOTE_REST, NOTE_A5, NOTE_REST, NOTE_A4, NOTE_GS4, NOTE_A4, NOTE_B4, NOTE_C5, NOTE_A4, NOTE_B4, NOTE_A4, NOTE_B4, NOTE_C5, NOTE_B4, NOTE_CS5, NOTE_D5, NOTE_B4, NOTE_CS5, NOTE_B4, NOTE_CS5, NOTE_D5, NOTE_CS5, NOTE_D5, NOTE_E5, NOTE_CS5, NOTE_D5, NOTE_REST, NOTE_A5, NOTE_REST, NOTE_REST, NOTE_F5, NOTE_REST, NOTE_E5, NOTE_D5, NOTE_CS5, NOTE_B4, NOTE_CS5, NOTE_A4, NOTE_B4, NOTE_CS5, NOTE_D5, NOTE_REST, NOTE_C5, NOTE_D5, NOTE_E5, NOTE_D5, NOTE_F5, NOTE_E5, NOTE_D5, NOTE_E5, NOTE_REST, NOTE_D5, NOTE_CS5, NOTE_BF4, NOTE_A4, NOTE_G4, NOTE_F4, NOTE_E4, NOTE_D4, NOTE_C5, NOTE_BF4, NOTE_A4, NOTE_G4, NOTE_F4, NOTE_E4, NOTE_G4, NOTE_F4, NOTE_REST, NOTE_D4, NOTE_REST, NOTE_A4, NOTE_REST, NOTE_B4, NOTE_CS5, NOTE_D5, NOTE_E5, NOTE_REST, NOTE_G5, NOTE_REST, NOTE_FS5, NOTE_REST, NOTE_D5, NOTE_REST, NOTE_A4, NOTE_REST, NOTE_C5, NOTE_REST, NOTE_B4, NOTE_REST, NOTE_G4, NOTE_REST, NOTE_F5, NOTE_REST, NOTE_E5, NOTE_D5, NOTE_E5, NOTE_REST, NOTE_C5, NOTE_REST, NOTE_A4, NOTE_REST, NOTE_C5, NOTE_REST, NOTE_EF5, NOTE_REST, NOTE_G4, NOTE_REST, NOTE_FS4, NOTE_REST, NOTE_D5, NOTE_REST, NOTE_G4, NOTE_REST, NOTE_C5, NOTE_REST, NOTE_BF4, NOTE_REST, NOTE_A4, NOTE_REST, NOTE_G4, NOTE_REST, NOTE_REST, NOTE_E4, NOTE_A4, NOTE_REST, NOTE_GS4, NOTE_A4, NOTE_B4, NOTE_CS5, NOTE_D5, NOTE_E5, NOTE_CS5, NOTE_D5, NOTE_BF4, NOTE_A4, NOTE_G4, NOTE_A4, NOTE_FS4, NOTE_G4, NOTE_A4, NOTE_D4, NOTE_REST, NOTE_G4, NOTE_REST, NOTE_D5, NOTE_REST, NOTE_CS5, NOTE_D5, NOTE_E5, NOTE_F5, NOTE_G5, NOTE_REST, NOTE_E5, NOTE_F5, NOTE_G5, NOTE_A5, NOTE_REST, NOTE_E5, NOTE_REST, NOTE_D5, NOTE_REST, NOTE_CS5, NOTE_REST, NOTE_D5, NOTE_REST, NOTE_REST, NOTE_REST, NOTE_REST, NOTE_REST, NOTE_REST, NOTE_REST, NOTE_REST, NOTE_REST, NOTE_REST, NOTE_REST, NOTE_REST, NOTE_G4, NOTE_F4, NOTE_E4, NOTE_F4, NOTE_REST, NOTE_A5, NOTE_REST, NOTE_E4, NOTE_REST, NOTE_G5, NOTE_REST, NOTE_D4, NOTE_G5, NOTE_F5, NOTE_E5, NOTE_D5, NOTE_C5, NOTE_BF4, NOTE_A4, NOTE_BF4, NOTE_REST, NOTE_D6, NOTE_REST, NOTE_A4, NOTE_REST, NOTE_C6, NOTE_REST, NOTE_G4, NOTE_C6, NOTE_BF5, NOTE_A5, NOTE_G5, NOTE_F5, NOTE_E5, NOTE_D5, NOTE_E5, NOTE_BF5, NOTE_A5, NOTE_G5, NOTE_A5, NOTE_E5, NOTE_D5, NOTE_CS5, NOTE_D5, NOTE_A5, NOTE_G5, NOTE_F5, NOTE_G5, NOTE_D5, NOTE_CS5, NOTE_B4, NOTE_CS5, NOTE_G5, NOTE_F5, NOTE_E5, NOTE_F5, NOTE_E5, NOTE_D5, NOTE_F5, NOTE_E5, NOTE_D5, NOTE_CS5, NOTE_B4, NOTE_A4, NOTE_REST, NOTE_D5, NOTE_E5, NOTE_F5, NOTE_REST, NOTE_D4, NOTE_REST, NOTE_C4, NOTE_B3, NOTE_A3, NOTE_B3, NOTE_REST, NOTE_G4, NOTE_REST, NOTE_C5, NOTE_D5, NOTE_E5, NOTE_REST, NOTE_C4, NOTE_REST, NOTE_BF3, NOTE_A3, NOTE_G3, NOTE_A3, NOTE_REST, NOTE_F4, NOTE_REST, NOTE_G4, NOTE_F4, NOTE_E4, NOTE_D4, NOTE_C4, NOTE_B3, NOTE_A3, NOTE_G3, NOTE_A4, NOTE_G4, NOTE_F4, NOTE_E4, NOTE_D4, NOTE_CS4, NOTE_B3, NOTE_A3, NOTE_REST, NOTE_A4, NOTE_REST, NOTE_BF4, NOTE_REST, NOTE_F4, NOTE_REST, NOTE_G4, NOTE_REST, NOTE_BF4, NOTE_REST, NOTE_C5, NOTE_REST, NOTE_G4, NOTE_REST, NOTE_A4, NOTE_C5, NOTE_D5, NOTE_E5, NOTE_F5, NOTE_G5, NOTE_A5, NOTE_F5, NOTE_B4, NOTE_F5, NOTE_A5, NOTE_REST, NOTE_F5, NOTE_D5, NOTE_B4, NOTE_GS5, NOTE_B4, NOTE_C5, NOTE_D5, NOTE_E5, NOTE_FS5, NOTE_G5, NOTE_E5, NOTE_A4, NOTE_E5, NOTE_G5, NOTE_REST, NOTE_E5, NOTE_CS5, NOTE_A4, NOTE_F5, NOTE_REST, NOTE_D5, NOTE_REST, NOTE_A4, NOTE_REST, NOTE_A5, NOTE_REST, NOTE_E5, NOTE_C5, NOTE_A4, NOTE_REST, NOTE_F4, NOTE_REST, NOTE_D4, NOTE_REST, NOTE_D5, NOTE_REST, NOTE_B4, NOTE_GS4, NOTE_E4, NOTE_D4, NOTE_C4, NOTE_B3, NOTE_C4, NOTE_REST, NOTE_E5, NOTE_REST, NOTE_B3, NOTE_REST, NOTE_D5, NOTE_REST, NOTE_A3, NOTE_D5, NOTE_C5, NOTE_B4, NOTE_A4, NOTE_G4, NOTE_F4, NOTE_E4, NOTE_F4, NOTE_REST, NOTE_A5, NOTE_REST, NOTE_E4, NOTE_REST, NOTE_G5, NOTE_REST, NOTE_D4, NOTE_G5, NOTE_F5, NOTE_E5, NOTE_D5, NOTE_C5, NOTE_B4, NOTE_A4, NOTE_B4, NOTE_F5, NOTE_E5, NOTE_D5, NOTE_E5, NOTE_B4, NOTE_A4, NOTE_GS4, NOTE_A4, NOTE_E5, NOTE_D5, NOTE_C5, NOTE_D5, NOTE_A4, NOTE_GS4, NOTE_FS4, NOTE_GS4, NOTE_D5, NOTE_C5, NOTE_B4, NOTE_C5, NOTE_B4, NOTE_A4, NOTE_C5, NOTE_B4, NOTE_A4, NOTE_GS4, NOTE_FS4, NOTE_E4, NOTE_REST, NOTE_REST, NOTE_REST, NOTE_C4, NOTE_A3, NOTE_C4, NOTE_D4, NOTE_B3, NOTE_GS3, NOTE_B3, NOTE_C4, NOTE_REST, NOTE_A3, NOTE_REST, NOTE_A4, NOTE_REST, NOTE_F4, NOTE_D4, NOTE_F4, NOTE_G4, NOTE_E4, NOTE_CS4, NOTE_E4, NOTE_F4, NOTE_REST, NOTE_D4, NOTE_REST, NOTE_F5, NOTE_REST, NOTE_D4, NOTE_C4, NOTE_B3, NOTE_C4, NOTE_REST, NOTE_E5, NOTE_REST, NOTE_C4, NOTE_B3, NOTE_A3, NOTE_B3, NOTE_REST, NOTE_D5, NOTE_REST, NOTE_B3, NOTE_A3, NOTE_GS3, NOTE_A3, NOTE_REST, NOTE_A4, NOTE_REST, NOTE_C5, NOTE_B4, NOTE_A4, NOTE_B4, NOTE_D5, NOTE_C5, NOTE_B4, NOTE_C5, NOTE_B4, NOTE_A4, NOTE_B4, NOTE_C5, NOTE_B4, NOTE_C5, NOTE_D5, NOTE_E5, NOTE_REST, NOTE_D5, NOTE_CS5, NOTE_B4, NOTE_CS5, NOTE_A4, NOTE_B4, NOTE_CS5, NOTE_D5, NOTE_REST, NOTE_C5, NOTE_B4, NOTE_C5, NOTE_D5, NOTE_E5, NOTE_F5, NOTE_D5, NOTE_E5, NOTE_F5, NOTE_E5, NOTE_D5, NOTE_C5, NOTE_B4, NOTE_A4, NOTE_GS4, NOTE_A4, NOTE_REST, NOTE_A5, NOTE_REST, NOTE_GS5, NOTE_REST, NOTE_A5, NOTE_REST, NOTE_G5, NOTE_F5, NOTE_E5, NOTE_D5, NOTE_C5, NOTE_B4, NOTE_A4, NOTE_C5, NOTE_E5, NOTE_A5, NOTE_B4, NOTE_D5, NOTE_E5, NOTE_GS5, NOTE_A5, NOTE_E5, NOTE_C5, NOTE_A4, NOTE_GS4, NOTE_B4, NOTE_D5, NOTE_E5, NOTE_A4, NOTE_C5, NOTE_E5, NOTE_A5, NOTE_B4, NOTE_D5, NOTE_E5, NOTE_GS5, NOTE_A5, NOTE_E5, NOTE_C5, NOTE_A4, NOTE_A3, NOTE_BF4, NOTE_A4, NOTE_G4, NOTE_F4, NOTE_REST, NOTE_D5, NOTE_REST, NOTE_G4, NOTE_REST, NOTE_E5, NOTE_REST, NOTE_F4, NOTE_REST, NOTE_D5, NOTE_REST, NOTE_E4, NOTE_REST, NOTE_CS5, NOTE_REST, NOTE_F4, NOTE_REST, NOTE_D5, NOTE_REST, NOTE_A4, NOTE_REST, NOTE_E5, NOTE_REST, NOTE_F5, NOTE_REST, NOTE_D5, NOTE_REST, NOTE_REST, NOTE_D5, NOTE_REST, NOTE_G4, NOTE_REST, NOTE_C5, NOTE_REST, NOTE_A4, NOTE_REST, NOTE_D4, NOTE_REST, NOTE_C5, NOTE_REST, NOTE_BF4, NOTE_A4, NOTE_G4, NOTE_A4, NOTE_BF4, NOTE_A4, NOTE_BF4, NOTE_C5, NOTE_D5, NOTE_REST, NOTE_C5, NOTE_B4, NOTE_A4, NOTE_B4, NOTE_G4, NOTE_A4, NOTE_B4, NOTE_C5, NOTE_REST, NOTE_BF4, NOTE_A4, NOTE_BF4, NOTE_C5, NOTE_D5, NOTE_EF5, NOTE_C5, NOTE_D5, NOTE_EF5, NOTE_D5, NOTE_C5, NOTE_BF4, NOTE_A4, NOTE_G4, NOTE_FS4, NOTE_G4, NOTE_REST, NOTE_G5, NOTE_REST, NOTE_FS5, NOTE_REST, NOTE_G5, NOTE_REST, NOTE_REST, NOTE_REST, NOTE_EF4, NOTE_D4, NOTE_C4, NOTE_BF3, NOTE_REST, NOTE_G4, NOTE_REST, NOTE_C4, NOTE_REST, NOTE_A4, NOTE_REST, NOTE_BF3, NOTE_REST, NOTE_G4, NOTE_REST, NOTE_A3, NOTE_REST, NOTE_FS4, NOTE_REST, NOTE_BF3, NOTE_REST, NOTE_G4, NOTE_REST, NOTE_D4, NOTE_REST, NOTE_A4, NOTE_REST, NOTE_BF4, NOTE_REST, NOTE_G4, NOTE_REST, NOTE_REST, NOTE_F5, NOTE_EF5, NOTE_D5, NOTE_C5, NOTE_EF5, NOTE_G5, NOTE_C6, NOTE_D5, NOTE_F5, NOTE_G5, NOTE_B5, NOTE_C6, NOTE_G5, NOTE_EF5, NOTE_C5, NOTE_B4, NOTE_D5, NOTE_F5, NOTE_G5, NOTE_C5, NOTE_EF5, NOTE_G5, NOTE_C6, NOTE_D5, NOTE_F5, NOTE_G5, NOTE_B5, NOTE_C6, NOTE_G5, NOTE_EF5, NOTE_C5, NOTE_C4, NOTE_REST, NOTE_EF5, NOTE_REST, NOTE_F4, NOTE_REST, NOTE_EF5, NOTE_REST, NOTE_F4, NOTE_REST, NOTE_BF3, NOTE_REST, NOTE_D5, NOTE_REST, NOTE_D4, NOTE_REST, NOTE_C5, NOTE_REST, NOTE_D4, NOTE_REST, NOTE_G3, NOTE_BF3, NOTE_A3, NOTE_B3, NOTE_CS4, NOTE_B3, NOTE_CS4, NOTE_D4, NOTE_CS4, NOTE_D4, NOTE_E4, NOTE_CS4, NOTE_D4, NOTE_CS4, NOTE_D4, NOTE_E4, NOTE_F4, NOTE_E4, NOTE_F4, NOTE_G4, NOTE_A4, NOTE_G4, NOTE_A4, NOTE_BF4, NOTE_A4, NOTE_BF4, NOTE_C5, NOTE_A4, NOTE_BF4, NOTE_EF4, NOTE_D4, NOTE_C4, NOTE_D4, NOTE_F4, NOTE_BF4, NOTE_REST, NOTE_BF4, NOTE_REST, NOTE_G4, NOTE_REST, NOTE_E5, NOTE_REST, NOTE_A4, NOTE_REST, NOTE_F4, NOTE_REST, NOTE_D5, NOTE_REST, NOTE_G4, NOTE_REST, NOTE_E4, NOTE_REST, NOTE_CS5, NOTE_REST, NOTE_D5, NOTE_REST, NOTE_C5, NOTE_BF4, NOTE_A4, NOTE_BF4, NOTE_D4, NOTE_E4, NOTE_FS4, NOTE_G4, NOTE_A4, NOTE_BF4, NOTE_G4, NOTE_C4, NOTE_G4, NOTE_BF4, NOTE_REST, NOTE_G4, NOTE_E4, NOTE_C4, NOTE_A4, NOTE_C4, NOTE_D4, NOTE_E4, NOTE_F4, NOTE_G4, NOTE_A4, NOTE_F4, NOTE_BF3, NOTE_F4, NOTE_AF4, NOTE_REST, NOTE_F4, NOTE_D4, NOTE_BF3, NOTE_G4, NOTE_REST, NOTE_BF4, NOTE_REST, NOTE_C5, NOTE_REST, NOTE_G4, NOTE_REST, NOTE_A4, NOTE_REST, NOTE_C5, NOTE_REST, NOTE_D5, NOTE_REST, NOTE_A4, NOTE_REST, NOTE_BF4, NOTE_C5, NOTE_BF4, NOTE_A4, NOTE_G4, NOTE_F4, NOTE_EF4, NOTE_D4, NOTE_C4, NOTE_D5, NOTE_C5, NOTE_BF4, NOTE_A4, NOTE_G4, NOTE_F4, NOTE_EF4, NOTE_D4, NOTE_REST, NOTE_BF4, NOTE_C5, NOTE_D5, NOTE_REST, NOTE_BF4, NOTE_REST, NOTE_A4, NOTE_G4, NOTE_F4, NOTE_E4, NOTE_REST, NOTE_E5, NOTE_REST, NOTE_A4, NOTE_BF4, NOTE_C5, NOTE_REST, NOTE_A4, NOTE_REST, NOTE_G4, NOTE_FS4, NOTE_E4, NOTE_D4, NOTE_REST, NOTE_G4, NOTE_BF4, NOTE_D5, NOTE_G5, NOTE_D5, NOTE_BF4, NOTE_G4, NOTE_D4, NOTE_F4, NOTE_A4, NOTE_D5, NOTE_F5, NOTE_D5, NOTE_A4, NOTE_F4, NOTE_D4, NOTE_E4, NOTE_G4, NOTE_BF4, NOTE_E5, NOTE_BF4, NOTE_G4, NOTE_E4, NOTE_CS4, NOTE_E4, NOTE_G4, NOTE_A4, NOTE_E5, NOTE_REST, NOTE_REST, NOTE_REST, NOTE_REST, NOTE_REST, NOTE_REST, NOTE_REST, NOTE_REST, NOTE_REST, NOTE_G4, NOTE_F4, NOTE_E4, NOTE_F4, NOTE_REST, NOTE_A5, NOTE_REST, NOTE_E4, NOTE_REST, NOTE_G5, NOTE_REST, NOTE_D4, NOTE_G5, NOTE_F5, NOTE_E5, NOTE_D5, NOTE_C5, NOTE_BF4, NOTE_A4, NOTE_BF4, NOTE_REST, NOTE_D6, NOTE_REST, NOTE_A4, NOTE_REST, NOTE_C6, NOTE_REST, NOTE_G4, NOTE_C6, NOTE_BF5, NOTE_A5, NOTE_G5, NOTE_F5, NOTE_E5, NOTE_D5, NOTE_E5, NOTE_BF5, NOTE_A5, NOTE_G5, NOTE_A5, NOTE_E5, NOTE_D5, NOTE_CS5, NOTE_D5, NOTE_A5, NOTE_G5, NOTE_F5, NOTE_G5, NOTE_D5, NOTE_CS5, NOTE_B4, NOTE_CS5, NOTE_G5, NOTE_F5, NOTE_E5, NOTE_F5, NOTE_E5, NOTE_D5, NOTE_F5, NOTE_E5, NOTE_D5, NOTE_CS5, NOTE_B4, NOTE_A4, NOTE_REST, NOTE_REST, NOTE_A4, NOTE_REST, NOTE_D5, NOTE_REST, NOTE_F5, NOTE_REST, NOTE_E5, NOTE_REST, NOTE_CS5, NOTE_REST, NOTE_A4, NOTE_REST, NOTE_G4, NOTE_FS4, NOTE_E4, NOTE_FS4, NOTE_D4, NOTE_E4, NOTE_FS4, NOTE_G4, NOTE_REST, NOTE_F4, NOTE_E4, NOTE_F4, NOTE_G4, NOTE_A4, NOTE_BF4, NOTE_G4, NOTE_A4, NOTE_BF4, NOTE_A4, NOTE_G4, NOTE_F4, NOTE_E4, NOTE_D4, NOTE_CS4, NOTE_D4, NOTE_REST, NOTE_BF4, NOTE_REST, NOTE_A4, NOTE_G4, NOTE_FS4
};

const unsigned int bachDouble2Times[] PROGMEM =
{
	138, 138, 138, 138, 138, 138, 138, 138, 138, 138, 138, 138, 138, 138, 138, 138, 138, 138, 138, 138, 555, 277, 138, 138, 138, 138, 138, 138, 138, 138, 138, 138, 138, 138, 138, 138, 138, 138, 138, 138, 138, 138, 138, 138, 277, 277, 69, 69, 69, 69, 277, 138, 138, 138, 138, 138, 138, 138, 138, 138, 138, 138, 138, 138, 138, 138, 138, 1111, 138, 138, 138, 138, 138, 138, 138, 138, 1111, 138, 138, 138, 138, 138, 138, 138, 138, 138, 138, 138, 138, 138, 138, 138, 138, 138, 138, 277, 277, 138, 138, 138, 138, 138, 138, 138, 138, 138, 138, 138, 138, 138, 138, 138, 138, 138, 138, 138, 138, 138, 138, 138, 138, 138, 138, 138, 138, 138, 138, 277, 138, 138, 138, 138, 138, 138, 138, 138, 138, 138, 1111, 138, 138, 138, 138, 138, 138, 138, 138, 1111, 138, 138, 138, 138, 138, 138, 138, 138, 138, 138, 138, 138, 138, 138, 138, 138, 138, 138, 138, 138, 555, 138, 138, 138, 138, 138, 138, 138, 138, 138, 138, 138, 138, 138, 138, 138, 138, 138, 138, 138, 138, 555, 277, 138, 138, 138, 138, 138, 138, 138, 138, 138, 138, 138, 138, 138, 138, 138, 138, 138, 138, 138, 138, 138, 138, 277, 277, 277, 277, 277, 277, 277, 277, 1111, 138, 138, 138, 138, 138, 138, 138, 138, 138, 138, 138, 138, 138, 138, 138, 138, 138, 138, 138, 138, 555, 277, 138, 138, 138, 138, 277, 138, 138, 138, 138, 138, 138, 277, 277, 277, 277, 138, 138, 138, 138, 277, 277, 138, 138, 2222, 2222, 2222, 555, 555, 555, 138, 138, 138, 138, 138, 138, 138, 138, 138, 138, 138, 138, 138, 138, 138, 138, 138, 138, 138, 138, 138, 138, 138, 138, 138, 138, 138, 138, 138, 138, 138, 138, 138, 138, 138, 138, 138, 138, 138, 138, 138, 138, 138, 138, 138, 138, 138, 138, 138, 138, 138, 138, 138, 138, 138, 138, 138, 138, 138, 138, 138, 138, 138, 138, 555, 277, 138, 138, 138, 138, 277, 138, 138, 138, 138, 138, 138, 277, 277, 138, 138, 138, 138, 277, 138, 138, 138, 138, 138, 138, 277, 138, 138, 138, 138, 138, 138, 138, 138, 138, 138, 138, 138, 138, 138, 138, 138, 138, 138, 138, 138, 138, 138, 138, 138, 138, 138, 138, 138, 138, 138, 138, 138, 138, 138, 138, 138, 138, 138, 138, 138, 138, 138, 277, 138, 138, 138, 138, 138, 138, 138, 138, 138, 138, 138, 138, 138, 138, 277, 138, 138, 138, 138, 138, 138, 138, 138, 138, 138, 277, 277, 138, 138, 555, 277, 138, 138, 138, 138, 277, 277, 138, 138, 138, 138, 138, 138, 138, 138, 138, 138, 138, 138, 138, 138, 138, 138, 138, 138, 138, 138, 138, 138, 138, 138, 138, 138, 138, 138, 138, 138, 138, 138, 138, 138, 138, 138, 138, 138, 138, 138, 138, 138, 138, 138, 138, 138, 138, 138, 138, 138, 138, 138, 138, 138, 138, 138, 138, 138, 138, 138, 138, 138, 138, 138, 138, 138, 138, 138, 277, 138, 138, 138, 138, 138, 138, 138, 138, 138, 138, 138, 138, 555, 138, 138, 138, 138, 138, 138, 138, 138, 138, 138, 138, 138, 555, 138, 138, 138, 138, 138, 138, 277, 138, 138, 138, 138, 138, 138, 277, 138, 138, 138, 138, 138, 138, 277, 138, 138, 138, 138, 138, 138, 138, 138, 138, 138, 138, 138, 138, 138, 138, 138, 1111, 138, 138, 138, 138, 138, 138, 138, 138, 1111, 138, 138, 138, 138, 138, 138, 138, 138, 138, 138, 138, 138, 138, 138, 138, 138, 138, 138, 277, 277, 138, 138, 138, 138, 138, 138, 138, 138, 138, 138, 138, 138, 138, 138, 138, 138, 138, 138, 138, 138, 138, 138, 138, 138, 138, 138, 138, 138, 138, 138, 138, 138, 138, 138, 138, 138, 138, 138, 138, 138, 138, 138, 138, 138, 138, 138, 138, 138, 138, 138, 138, 138, 138, 138, 138, 138, 138, 138, 138, 138, 138, 138, 138, 138, 138, 138, 138, 138, 138, 138, 277, 277, 277, 138, 138, 555, 277, 138, 138, 138, 138, 138, 138, 138, 138, 138, 138, 138, 138, 138, 138, 1111, 138, 138, 138, 138, 138, 138, 138, 138, 1111, 138, 138, 138, 138, 138, 138, 138, 138, 138, 138, 138, 138, 138, 138, 138, 138, 138, 138, 277, 277, 138, 138, 138, 138, 277, 138, 138, 138, 138, 138, 138, 138, 138, 138, 138, 138, 138, 138, 138, 138, 138, 138, 138, 138, 138, 138, 138, 138, 138, 138, 138, 138, 138, 138, 138, 138, 138, 138, 138, 138, 138, 138, 138, 138, 138, 138, 138, 138, 138, 138, 138, 138, 138, 138, 138, 138, 138, 138, 138, 138, 138, 138, 138, 138, 138, 138, 138, 138, 138, 138, 138, 277, 277, 138, 138, 555, 277, 138, 138, 138, 138, 277, 277, 138, 138, 555, 277, 138, 138, 138, 138, 138, 138, 138, 138, 138, 138, 138, 138, 138, 138, 138, 138, 138, 138, 138, 138, 138, 138, 138, 138, 138, 138, 138, 138, 138, 138, 138, 138, 138, 138, 138, 138, 277, 277, 138, 138, 138, 138, 277, 277, 138, 138, 138, 138, 277, 277, 138, 138, 138, 138, 138, 138, 555, 138, 138, 138, 138, 138, 138, 138, 138, 138, 138, 138, 138, 138, 138, 277, 138, 138, 138, 138, 138, 138, 138, 138, 138, 138, 138, 138, 138, 138, 277, 138, 138, 138, 138, 138, 138, 138, 138, 138, 138, 138, 138, 138, 138, 138, 138, 138, 138, 138, 138, 138, 138, 138, 138, 138, 138, 138, 138, 138, 138, 138, 138, 138, 138, 138, 138, 138, 138, 138, 138, 138, 138, 277, 138, 138, 138, 138, 138, 138, 277, 277, 138, 138, 138, 138, 277, 138, 138, 138, 138, 555, 138, 138, 138, 138, 138, 138, 138, 138, 138, 138, 138, 138, 138, 138, 138, 138, 138, 138, 138, 138, 138, 138, 138, 138, 138, 138, 138, 138, 138, 138, 277, 2222, 2222, 2222, 555, 555, 555, 138, 138, 138, 138, 138, 138, 138, 138, 138, 138, 138, 138, 138, 138, 138, 138, 138, 138, 138, 138, 138, 138, 138, 138, 138, 138, 138, 138, 138, 138, 138, 138, 138, 138, 138, 138, 138, 138, 138, 138, 138, 138, 138, 138, 138, 138, 138, 138, 138, 138, 138, 138, 138, 138, 138, 138, 138, 138, 138, 138, 138, 138, 138, 138, 277, 277, 277, 138, 138, 138, 138, 138, 138, 138, 138, 138, 138, 555, 138, 138, 138, 138, 138, 138, 138, 138, 1111, 138, 138, 138, 138, 138, 138, 138, 138, 138, 138, 138, 138, 138, 138, 138, 138, 138, 138, 277, 277, 138, 138, 1111
};


const struct Song bachDoubleSong PROGMEM =
{
	bachDouble1Notes,
	bachDouble1Times,
	bachDouble2Notes,
	bachDouble2Times,
	sizeof(bachDouble1Notes) / sizeof(bachDouble1Notes[0]),
	sizeof(bachDouble2Notes) / sizeof(bachDouble2Notes[0])
};
#pragma endregion

#pragma region Bach
// Bach
const unsigned int bachNotes[] PROGMEM =
{
	NOTE_G5, NOTE_BF5, NOTE_G5, NOTE_D5, NOTE_G5, NOTE_D5, NOTE_BF4, NOTE_D5, NOTE_BF4, NOTE_G4, NOTE_BF4, NOTE_G4, NOTE_D4, NOTE_G4, NOTE_D4, NOTE_BF3, NOTE_D4, NOTE_BF3, NOTE_G3, NOTE_BF3, NOTE_D4, NOTE_G4, NOTE_BF4, NOTE_D5, NOTE_G5, NOTE_D5, NOTE_C5, NOTE_BF4, NOTE_A4, NOTE_G4, NOTE_FS4, NOTE_D4, NOTE_FS4, NOTE_A4, NOTE_D5, NOTE_FS5, NOTE_A5, NOTE_EF5, NOTE_D5, NOTE_C5, NOTE_BF4, NOTE_A4, NOTE_G4, NOTE_D4, NOTE_G4, NOTE_BF4, NOTE_D5, NOTE_G5, NOTE_BF5, NOTE_G5, NOTE_EF5, NOTE_C5, NOTE_EF5, NOTE_G5, NOTE_A5, NOTE_F5, NOTE_D5, NOTE_BF4, NOTE_D5, NOTE_F5, NOTE_G5, NOTE_EF5, NOTE_C5, NOTE_A4, NOTE_C5, NOTE_EF5, NOTE_D4, NOTE_G5, NOTE_FS5, NOTE_G5, NOTE_A5, NOTE_C5, NOTE_G4, NOTE_C5, NOTE_BF4, NOTE_C5, NOTE_D5, NOTE_F4, NOTE_C4, NOTE_F5, NOTE_E5, NOTE_F5, NOTE_G5, NOTE_BF4, NOTE_F4, NOTE_BF4, NOTE_A4, NOTE_BF4, NOTE_C5, NOTE_EF4, NOTE_BF3, NOTE_EF5, NOTE_D5, NOTE_EF5, NOTE_F5, NOTE_AF4, NOTE_EF4, NOTE_BF3, NOTE_EF4, NOTE_G4, NOTE_EF4, NOTE_G4, NOTE_C5, NOTE_G4, NOTE_C5, NOTE_EF5, NOTE_C5, NOTE_EF5, NOTE_F4, NOTE_C4, NOTE_F4, NOTE_A4, NOTE_F4, NOTE_A4, NOTE_D5, NOTE_A4, NOTE_D5, NOTE_F5, NOTE_D5, NOTE_F5, NOTE_G4, NOTE_D4, NOTE_G4, NOTE_BF4, NOTE_G4, NOTE_BF4, NOTE_EF5, NOTE_BF4, NOTE_EF5, NOTE_G5, NOTE_EF5, NOTE_G5, NOTE_A4, NOTE_F4, NOTE_A4, NOTE_C5, NOTE_A4, NOTE_C5, NOTE_F5, NOTE_C5, NOTE_F5, NOTE_A5, NOTE_F5, NOTE_A5, NOTE_BF4, NOTE_C5, NOTE_D5, NOTE_BF5, NOTE_A5, NOTE_BF5, NOTE_C5, NOTE_D5, NOTE_EF5, NOTE_BF5, NOTE_A5, NOTE_BF5, NOTE_D5, NOTE_EF5, NOTE_F5, NOTE_BF5, NOTE_A5, NOTE_BF5, NOTE_EF5, NOTE_F5, NOTE_G5, NOTE_BF5, NOTE_A5, NOTE_BF5, NOTE_A4, NOTE_C5, NOTE_EF5, NOTE_G5, NOTE_F5, NOTE_EF5, NOTE_D5, NOTE_BF4, NOTE_EF5, NOTE_BF4, NOTE_F5, NOTE_AF4, NOTE_G4, NOTE_A4, NOTE_BF4, NOTE_D4, NOTE_C4, NOTE_A4, NOTE_BF3, NOTE_D4, NOTE_C4, NOTE_BF3, NOTE_A3, NOTE_G3, NOTE_A3, NOTE_G4, NOTE_FS4, NOTE_E4, NOTE_D4, NOTE_C5, NOTE_BF4, NOTE_A4, NOTE_G4, NOTE_F5, NOTE_E5, NOTE_D5, NOTE_CS5, NOTE_BF5, NOTE_A5, NOTE_G5, NOTE_F5, NOTE_E5, NOTE_F5, NOTE_D5, NOTE_G5, NOTE_D5, NOTE_A5, NOTE_C5, NOTE_BF4, NOTE_A5, NOTE_G5, NOTE_F5, NOTE_E5, NOTE_D5, NOTE_E5, NOTE_C5, NOTE_F5, NOTE_C5, NOTE_G5, NOTE_BF4, NOTE_A4, NOTE_G5, NOTE_F5, NOTE_E5, NOTE_D5, NOTE_CS5, NOTE_D5, NOTE_BF4, NOTE_E5, NOTE_BF4, NOTE_F5, NOTE_A4, NOTE_G4, NOTE_F5, NOTE_E5, NOTE_D5, NOTE_CS5, NOTE_B4, NOTE_CS5, NOTE_A4, NOTE_D5, NOTE_A4, NOTE_E5, NOTE_G4, NOTE_F4, NOTE_D5, NOTE_BF4, NOTE_G4, NOTE_E4, NOTE_C5, NOTE_D4, NOTE_BF4, NOTE_G4, NOTE_E4, NOTE_C4, NOTE_A4, NOTE_BF3, NOTE_G4, NOTE_E4, NOTE_CS4, NOTE_A3, NOTE_F4, NOTE_G3, NOTE_F4, NOTE_E4, NOTE_D4, NOTE_CS4, NOTE_B3, NOTE_A3, NOTE_D4, NOTE_CS4, NOTE_E4, NOTE_D4, NOTE_F4, NOTE_A3, NOTE_E4, NOTE_D4, NOTE_F4, NOTE_E4, NOTE_G4, NOTE_A3, NOTE_F4, NOTE_E4, NOTE_G4, NOTE_F4, NOTE_A4, NOTE_BF3, NOTE_G4, NOTE_FS4, NOTE_A4, NOTE_G4, NOTE_BF4, NOTE_CS4, NOTE_BF4, NOTE_A4, NOTE_G4, NOTE_F4, NOTE_E4, NOTE_F4, NOTE_D4, NOTE_F4, NOTE_A4, NOTE_D5, NOTE_F5, NOTE_A5, NOTE_D5, NOTE_A4, NOTE_CS5, NOTE_D5, NOTE_D4, NOTE_A3, NOTE_D4, NOTE_FS4, NOTE_D4, NOTE_FS4, NOTE_A4, NOTE_FS4, NOTE_A4, NOTE_D5, NOTE_A4, NOTE_D5, NOTE_FS5, NOTE_D5, NOTE_FS5, NOTE_A5, NOTE_FS5, NOTE_A5, NOTE_D6, NOTE_A5, NOTE_FS5, NOTE_D5, NOTE_A4, NOTE_FS4, NOTE_D4, NOTE_E4, NOTE_FS4, NOTE_G4, NOTE_A4, NOTE_BF4, NOTE_C5, NOTE_EF5, NOTE_C5, NOTE_A4, NOTE_C5, NOTE_A4, NOTE_FS4, NOTE_D4, NOTE_FS4, NOTE_A4, NOTE_D5, NOTE_C5, NOTE_BF4, NOTE_D5, NOTE_BF4, NOTE_G4, NOTE_D4, NOTE_BF3, NOTE_G3, NOTE_A3, NOTE_BF3, NOTE_C4, NOTE_D4, NOTE_EF4, NOTE_F4, NOTE_AF4, NOTE_F4, NOTE_D4, NOTE_F4, NOTE_D4, NOTE_B3, NOTE_G3, NOTE_B3, NOTE_D4, NOTE_G4, NOTE_F4, NOTE_EF4, NOTE_C4, NOTE_EF4, NOTE_G4, NOTE_C5, NOTE_D5, NOTE_EF5, NOTE_C5, NOTE_AF4, NOTE_F4, NOTE_AF4, NOTE_C5, NOTE_D5, NOTE_BF4, NOTE_G4, NOTE_EF4, NOTE_G4, NOTE_BF4, NOTE_C5, NOTE_AF4, NOTE_F4, NOTE_D4, NOTE_F4, NOTE_AF4, NOTE_G3, NOTE_C5, NOTE_B4, NOTE_C5, NOTE_D5, NOTE_F4, NOTE_C4, NOTE_F5, NOTE_EF5, NOTE_F5, NOTE_G5, NOTE_BF4, NOTE_F4, NOTE_BF4, NOTE_AF4, NOTE_BF4, NOTE_C5, NOTE_EF4, NOTE_BF3, NOTE_EF5, NOTE_D5, NOTE_EF5, NOTE_F5, NOTE_AF4, NOTE_EF4, NOTE_AF4, NOTE_G4, NOTE_AF4, NOTE_BF4, NOTE_DF4, NOTE_AF3, NOTE_C4, NOTE_F4, NOTE_AF4, NOTE_G4, NOTE_F4, NOTE_B3, NOTE_D4, NOTE_F4, NOTE_AF4, NOTE_G4, NOTE_F4, NOTE_C4, NOTE_E4, NOTE_F4, NOTE_AF4, NOTE_G4, NOTE_F4, NOTE_D4, NOTE_F4, NOTE_B4, NOTE_C5, NOTE_D5, NOTE_F4, NOTE_EF4, NOTE_G4, NOTE_C5, NOTE_D5, NOTE_EF5, NOTE_C5, NOTE_AF5, NOTE_G5, NOTE_F5, NOTE_EF5, NOTE_D5, NOTE_C5, NOTE_G5, NOTE_D5, NOTE_EF5, NOTE_C5, NOTE_G4, NOTE_B4, NOTE_C4, NOTE_F4, NOTE_EF4, NOTE_D4, NOTE_C4, NOTE_BF3, NOTE_A3, NOTE_C4, NOTE_F4, NOTE_C4, NOTE_F4, NOTE_A4, NOTE_F4, NOTE_A4, NOTE_C5, NOTE_A4, NOTE_C5, NOTE_EF5, NOTE_C5, NOTE_EF5, NOTE_A5, NOTE_G5, NOTE_F5, NOTE_EF5, NOTE_D5, NOTE_C5, NOTE_BF4, NOTE_C5, NOTE_D5, NOTE_E5, NOTE_FS5, NOTE_A5, NOTE_C6, NOTE_A5, NOTE_FS5, NOTE_A5, NOTE_FS5, NOTE_C5, NOTE_FS5, NOTE_C5, NOTE_A4, NOTE_C5, NOTE_A4, NOTE_FS4, NOTE_A4, NOTE_FS4, NOTE_D4, NOTE_C5, NOTE_BF4, NOTE_G4, NOTE_BF4, NOTE_G4, NOTE_E4, NOTE_D5, NOTE_C5, NOTE_A4, NOTE_C5, NOTE_A4, NOTE_FS4, NOTE_EF5, NOTE_D5, NOTE_BF4, NOTE_D5, NOTE_BF4, NOTE_G4, NOTE_F5, NOTE_EF5, NOTE_C5, NOTE_EF5, NOTE_C5, NOTE_A4, NOTE_G5, NOTE_FS5, NOTE_D5, NOTE_E5, NOTE_FS5, NOTE_G5, NOTE_A5, NOTE_BF5, NOTE_D5, NOTE_G5, NOTE_BF5, NOTE_C5, NOTE_EF5, NOTE_A5, NOTE_F5, NOTE_D5, NOTE_BF4, NOTE_D5, NOTE_F5, NOTE_G5, NOTE_BF4, NOTE_EF5, NOTE_G5, NOTE_A4, NOTE_C5, NOTE_F5, NOTE_D5, NOTE_BF4, NOTE_G4, NOTE_BF4, NOTE_D5, NOTE_EF5, NOTE_G4, NOTE_C5, NOTE_EF5, NOTE_F4, NOTE_A4, NOTE_D5, NOTE_BF4, NOTE_G4, NOTE_E4, NOTE_G4, NOTE_BF4, NOTE_C5, NOTE_A4, NOTE_BF4, NOTE_G4, NOTE_FS4, NOTE_A4, NOTE_D4, NOTE_E4, NOTE_FS4, NOTE_G4, NOTE_A4, NOTE_BF4, NOTE_C5, NOTE_EF5, NOTE_D5, NOTE_G5, NOTE_FS5, NOTE_BF5, NOTE_A5, NOTE_G5, NOTE_FS5, NOTE_E5, NOTE_D5, NOTE_C5, NOTE_BF4, NOTE_EF5, NOTE_D5, NOTE_BF4, NOTE_C5, NOTE_A4, NOTE_F4, NOTE_D5, NOTE_C5, NOTE_A4, NOTE_BF4, NOTE_G4, NOTE_EF4, NOTE_C5, NOTE_BF4, NOTE_G4, NOTE_A4, NOTE_FS4, NOTE_D4, NOTE_BF4, NOTE_A4, NOTE_FS4, NOTE_G4, NOTE_EF4, NOTE_C4, NOTE_A4, NOTE_G4, NOTE_E4, NOTE_FS4, NOTE_D4, NOTE_BF3, NOTE_D5, NOTE_C5, NOTE_BF4, NOTE_A4, NOTE_G4, NOTE_EF5, NOTE_D5, NOTE_C5, NOTE_BF5, NOTE_A5, NOTE_G5, NOTE_FS5, NOTE_G5, NOTE_A5, NOTE_D5, NOTE_EF5, NOTE_C5, NOTE_F4, NOTE_B4, NOTE_D5, NOTE_AF4, NOTE_G4, NOTE_F4, NOTE_E4, NOTE_G4, NOTE_C5, NOTE_E5, NOTE_G5, NOTE_BF4, NOTE_EF4, NOTE_A4, NOTE_C5, NOTE_G4, NOTE_F4, NOTE_EF4, NOTE_D4, NOTE_F4, NOTE_BF4, NOTE_D5, NOTE_F5, NOTE_AF4, NOTE_G4, NOTE_EF5, NOTE_BF4, NOTE_G4, NOTE_EF4, NOTE_D4, NOTE_C4, NOTE_EF5, NOTE_C5, NOTE_BF4, NOTE_A4, NOTE_G4, NOTE_FS4, NOTE_D5, NOTE_A4, NOTE_FS4, NOTE_D4, NOTE_C4, NOTE_BF3, NOTE_D5, NOTE_BF4, NOTE_A4, NOTE_G4, NOTE_F4, NOTE_E4, NOTE_C4, NOTE_G4, NOTE_BF3, NOTE_A3, NOTE_G4, NOTE_FS4, NOTE_D4, NOTE_A4, NOTE_C4, NOTE_BF3, NOTE_A4, NOTE_G4, NOTE_EF4, NOTE_BF4, NOTE_D4, NOTE_C4, NOTE_BF4, NOTE_A4, NOTE_F4, NOTE_C5, NOTE_EF4, NOTE_D4, NOTE_C5, NOTE_BF4, NOTE_G4, NOTE_D5, NOTE_F4, NOTE_E4, NOTE_D5, NOTE_C5, NOTE_A4, NOTE_EF5, NOTE_G4, NOTE_FS4, NOTE_EF5, NOTE_D5, NOTE_BF4, NOTE_G5, NOTE_BF4, NOTE_A4, NOTE_C5, NOTE_BF4, NOTE_G4, NOTE_FS4, NOTE_A4, NOTE_D4, NOTE_C4, NOTE_BF3, NOTE_G4, NOTE_FS4, NOTE_A4, NOTE_G4, NOTE_BF4, NOTE_C4, NOTE_A4, NOTE_G4, NOTE_BF4, NOTE_A4, NOTE_C5, NOTE_D4, NOTE_BF4, NOTE_A4, NOTE_C5, NOTE_BF4, NOTE_D5, NOTE_EF4, NOTE_C5, NOTE_B4, NOTE_D5, NOTE_C5, NOTE_EF5, NOTE_FS4, NOTE_EF5, NOTE_D5, NOTE_C5, NOTE_BF4, NOTE_A4, NOTE_BF4, NOTE_D5, NOTE_G5, NOTE_BF5, NOTE_G5, NOTE_D5, NOTE_BF4, NOTE_G4, NOTE_D4, NOTE_FS5, NOTE_G5
};

const unsigned int bachTimes[] PROGMEM =
{
	166, 166, 166, 166, 166, 166, 166, 166, 166, 166, 166, 166, 166, 166, 166, 166, 166, 166, 166, 166, 166, 166, 166, 166, 166, 166, 166, 166, 166, 166, 166, 166, 166, 166, 166, 166, 166, 166, 166, 166, 166, 166, 166, 166, 166, 166, 166, 166, 166, 166, 166, 166, 166, 166, 166, 166, 166, 166, 166, 166, 166, 166, 166, 166, 166, 166, 166, 166, 166, 166, 166, 166, 166, 166, 166, 166, 166, 166, 166, 166, 166, 166, 166, 166, 166, 166, 166, 166, 166, 166, 166, 166, 166, 166, 166, 166, 166, 166, 166, 166, 166, 166, 166, 166, 166, 166, 166, 166, 166, 166, 166, 166, 166, 166, 166, 166, 166, 166, 166, 166, 166, 166, 166, 166, 166, 166, 166, 166, 166, 166, 166, 166, 166, 166, 166, 166, 166, 166, 166, 166, 166, 166, 166, 166, 166, 166, 166, 166, 166, 166, 166, 166, 166, 166, 166, 166, 166, 166, 166, 166, 166, 166, 166, 166, 166, 166, 166, 166, 166, 166, 166, 166, 166, 166, 166, 166, 166, 166, 166, 166, 166, 166, 166, 166, 166, 166, 166, 166, 166, 166, 166, 166, 166, 166, 166, 166, 166, 166, 166, 166, 166, 166, 166, 166, 166, 166, 166, 166, 166, 166, 166, 166, 166, 166, 166, 166, 166, 166, 166, 166, 166, 166, 166, 166, 166, 166, 166, 166, 166, 166, 166, 166, 166, 166, 166, 166, 166, 166, 166, 166, 166, 166, 166, 166, 166, 166, 166, 166, 166, 166, 166, 166, 166, 166, 166, 166, 166, 166, 166, 166, 166, 166, 166, 166, 166, 166, 166, 166, 166, 166, 166, 166, 166, 166, 166, 166, 166, 166, 166, 166, 166, 166, 166, 166, 166, 166, 166, 166, 166, 166, 166, 166, 166, 166, 166, 166, 166, 166, 166, 166, 166, 166, 166, 166, 166, 166, 166, 166, 166, 166, 166, 166, 166, 166, 333, 333, 1000, 166, 166, 166, 166, 166, 166, 166, 166, 166, 166, 166, 166, 166, 166, 166, 166, 166, 166, 166, 166, 166, 166, 166, 166, 166, 166, 166, 166, 166, 166, 166, 166, 166, 166, 166, 166, 166, 166, 166, 166, 166, 166, 166, 166, 166, 166, 166, 166, 166, 166, 166, 166, 166, 166, 166, 166, 166, 166, 166, 166, 166, 166, 166, 166, 166, 166, 166, 166, 166, 166, 166, 166, 166, 166, 166, 166, 166, 166, 166, 166, 166, 166, 166, 166, 166, 166, 166, 166, 166, 166, 166, 166, 166, 166, 166, 166, 166, 166, 166, 166, 166, 166, 166, 166, 166, 166, 166, 166, 166, 166, 166, 166, 166, 166, 166, 166, 166, 166, 166, 166, 166, 166, 166, 166, 166, 166, 166, 166, 166, 166, 166, 166, 166, 166, 166, 166, 166, 166, 166, 166, 166, 166, 166, 166, 166, 166, 166, 166, 166, 166, 166, 166, 166, 166, 166, 166, 166, 166, 166, 166, 166, 166, 166, 166, 166, 166, 166, 166, 166, 166, 166, 166, 166, 166, 166, 166, 166, 166, 166, 166, 166, 166, 166, 166, 166, 166, 166, 166, 166, 166, 166, 166, 166, 166, 166, 166, 166, 166, 166, 166, 166, 166, 166, 166, 166, 166, 166, 166, 166, 166, 166, 166, 166, 166, 166, 166, 166, 166, 166, 166, 166, 166, 166, 166, 166, 166, 166, 166, 166, 166, 166, 166, 166, 166, 166, 166, 166, 166, 166, 166, 166, 166, 166, 166, 166, 166, 166, 166, 166, 166, 166, 166, 166, 166, 166, 166, 166, 166, 166, 166, 166, 166, 166, 166, 166, 166, 166, 166, 166, 166, 166, 166, 166, 166, 166, 166, 166, 166, 166, 166, 166, 166, 166, 166, 166, 166, 166, 166, 166, 166, 166, 166, 166, 166, 166, 166, 166, 166, 166, 166, 166, 166, 166, 166, 166, 166, 166, 166, 166, 166, 166, 166, 166, 166, 166, 166, 166, 166, 166, 166, 166, 166, 166, 166, 166, 166, 166, 166, 166, 166, 166, 166, 166, 166, 166, 166, 166, 166, 166, 166, 166, 166, 166, 166, 166, 166, 166, 166, 166, 166, 166, 166, 166, 166, 166, 166, 166, 166, 166, 166, 166, 166, 166, 166, 166, 166, 166, 166, 166, 166, 166, 166, 166, 166, 166, 166, 166, 166, 166, 166, 166, 166, 166, 166, 166, 166, 166, 166, 166, 166, 166, 166, 166, 166, 166, 166, 166, 166, 166, 166, 166, 166, 166, 166, 166, 166, 166, 166, 166, 166, 166, 166, 166, 166, 166, 166, 166, 166, 166, 166, 166, 166, 166, 166, 166, 166, 166, 166, 166, 166, 166, 166, 166, 166, 166, 166, 166, 166, 166, 166, 166, 166, 166, 166, 166, 166, 166, 166, 166, 166, 166, 166, 166, 166, 166, 166, 166, 166, 166, 166, 166, 166, 166, 166, 166, 166, 166, 166, 166, 166, 166, 166, 166, 166, 166, 166, 166, 166, 166, 166, 166, 166, 333, 333, 1000
};

const struct Song bachSong PROGMEM =
{
	bachNotes,
	bachTimes,
	NULL,
	NULL,
	sizeof(bachNotes) / sizeof(bachNotes[0]),
	NULL
};
#pragma endregion

#pragma region Undertale
// Undertale
const unsigned int undertale1Notes[] PROGMEM =
{
	NOTE_REST, NOTE_C4, NOTE_REST, NOTE_G4, NOTE_REST, NOTE_C5, NOTE_REST, NOTE_EF5, NOTE_C5, NOTE_B4, NOTE_C5, NOTE_REST, NOTE_D5, NOTE_C5, NOTE_REST, NOTE_G4, NOTE_REST, NOTE_EF4, NOTE_REST, NOTE_C4, NOTE_REST, NOTE_D4, NOTE_EF4, NOTE_REST, NOTE_FS4, NOTE_G4, NOTE_REST, NOTE_EF4, NOTE_REST, NOTE_C4, NOTE_REST, NOTE_A3, NOTE_REST, NOTE_B3, NOTE_C4, NOTE_REST, NOTE_D4, NOTE_C4, NOTE_REST, NOTE_G3, NOTE_REST, NOTE_EF3, NOTE_REST, NOTE_REST, NOTE_REST, NOTE_C4, NOTE_REST, NOTE_G4, NOTE_REST, NOTE_C5, NOTE_REST, NOTE_EF5, NOTE_G5, NOTE_A5, NOTE_BF5, NOTE_A5, NOTE_REST, NOTE_G5, NOTE_REST, NOTE_A5, NOTE_BF5, NOTE_REST, NOTE_G5, NOTE_REST, NOTE_EF5, NOTE_REST, NOTE_C5, NOTE_REST, NOTE_B4, NOTE_REST, NOTE_C5, NOTE_REST, NOTE_D5, NOTE_EF5, NOTE_REST, NOTE_C5, NOTE_REST, NOTE_G4, NOTE_REST, NOTE_EF4, NOTE_REST, NOTE_B4, NOTE_A4, NOTE_REST, NOTE_B4, NOTE_A4, NOTE_B4, NOTE_A4, NOTE_B4, NOTE_C5, NOTE_REST, NOTE_REST, NOTE_REST, NOTE_EF4, NOTE_REST, NOTE_G4, NOTE_REST, NOTE_C5, NOTE_REST, NOTE_EF5, NOTE_AF5, NOTE_G5, NOTE_FS5, NOTE_REST, NOTE_G5, NOTE_C6, NOTE_REST, NOTE_G5, NOTE_REST, NOTE_EF5, NOTE_REST, NOTE_C5, NOTE_REST, NOTE_D5, NOTE_EF5, NOTE_REST, NOTE_F5, NOTE_G5, NOTE_REST, NOTE_EF5, NOTE_REST, NOTE_C5, NOTE_REST, NOTE_G4, NOTE_REST, NOTE_B4, NOTE_A4, NOTE_REST, NOTE_D5, NOTE_C5, NOTE_REST, NOTE_REST, NOTE_REST, NOTE_C4, NOTE_REST, NOTE_G4, NOTE_REST, NOTE_C5, NOTE_REST, NOTE_EF5, NOTE_G5, NOTE_A5, NOTE_BF5, NOTE_A5, NOTE_REST, NOTE_G5, NOTE_REST, NOTE_A5, NOTE_BF5, NOTE_REST, NOTE_G5, NOTE_REST, NOTE_EF5, NOTE_REST, NOTE_C5, NOTE_REST, NOTE_B4, NOTE_REST, NOTE_C5, NOTE_REST, NOTE_D5, NOTE_EF5, NOTE_REST, NOTE_C5, NOTE_REST, NOTE_G4, NOTE_REST, NOTE_EF4, NOTE_REST, NOTE_B4, NOTE_A4, NOTE_REST, NOTE_B4, NOTE_A4, NOTE_B4, NOTE_A4, NOTE_B4, NOTE_C5, NOTE_REST, NOTE_REST, NOTE_REST, NOTE_F4, NOTE_REST, NOTE_AF4, NOTE_REST, NOTE_C5, NOTE_REST, NOTE_F5, NOTE_C5, NOTE_B4, NOTE_C5, NOTE_REST, NOTE_D5, NOTE_C5, NOTE_D5, NOTE_B4, NOTE_REST, NOTE_G4, NOTE_REST, NOTE_B4, NOTE_REST, NOTE_D5, NOTE_REST, NOTE_EF5, NOTE_F5, NOTE_EF5, NOTE_D5, NOTE_REST, NOTE_C5, NOTE_REST, NOTE_C6, NOTE_BF5, NOTE_REST, NOTE_AF5, NOTE_REST, NOTE_G5, NOTE_AF5, NOTE_G5, NOTE_F5, NOTE_REST, NOTE_AF5, NOTE_REST, NOTE_G5, NOTE_REST, NOTE_REST, NOTE_F4, NOTE_REST, NOTE_AF4, NOTE_REST, NOTE_C5, NOTE_REST, NOTE_F5, NOTE_C5, NOTE_B4, NOTE_C5, NOTE_REST, NOTE_D5, NOTE_C5, NOTE_D5, NOTE_B4, NOTE_REST, NOTE_G4, NOTE_REST, NOTE_B4, NOTE_REST, NOTE_D5, NOTE_REST, NOTE_EF5, NOTE_F5, NOTE_EF5, NOTE_D5, NOTE_REST, NOTE_C5, NOTE_REST, NOTE_C6, NOTE_C6, NOTE_D6, NOTE_REST, NOTE_EF6, NOTE_REST, NOTE_D6, NOTE_REST, NOTE_C6, NOTE_REST, NOTE_B5, NOTE_REST, NOTE_AF5, NOTE_REST, NOTE_G5, NOTE_AF5, NOTE_G5, NOTE_REST, NOTE_REST, NOTE_REST, NOTE_REST, NOTE_F4, NOTE_REST, NOTE_AF4, NOTE_REST, NOTE_C5, NOTE_REST, NOTE_F5, NOTE_C5, NOTE_B4, NOTE_C5, NOTE_REST, NOTE_D5, NOTE_C5, NOTE_D5, NOTE_B4, NOTE_REST, NOTE_G4, NOTE_REST, NOTE_B4, NOTE_REST, NOTE_D5, NOTE_REST, NOTE_EF5, NOTE_F5, NOTE_EF5, NOTE_D5, NOTE_REST, NOTE_C5, NOTE_REST, NOTE_C6, NOTE_BF5, NOTE_REST, NOTE_AF5, NOTE_REST, NOTE_G5, NOTE_AF5, NOTE_G5, NOTE_F5, NOTE_REST, NOTE_AF5, NOTE_REST, NOTE_G5, NOTE_REST, NOTE_REST, NOTE_F4, NOTE_REST, NOTE_AF4, NOTE_REST, NOTE_C5, NOTE_REST, NOTE_F5, NOTE_G5, NOTE_AF5, NOTE_REST, NOTE_G5, NOTE_REST, NOTE_F5, NOTE_REST, NOTE_D5, NOTE_B4, NOTE_D5, NOTE_EF5, NOTE_D5, NOTE_C5, NOTE_B4, NOTE_C5, NOTE_REST, NOTE_D5, NOTE_REST, NOTE_EF5, NOTE_REST, NOTE_C5, NOTE_REST, NOTE_B4, NOTE_C5, NOTE_D5, NOTE_REST, NOTE_C5, NOTE_REST, NOTE_C6, NOTE_REST
};

const unsigned int undertale1Times[] PROGMEM =
{
	200, 100, 100, 100, 100, 100, 100, 400, 400, 200, 100, 100, 400, 100, 100, 100, 100, 100, 100, 100, 100, 200, 100, 100, 400, 100, 100, 100, 100, 100, 100, 100, 100, 200, 100, 100, 400, 100, 100, 100, 100, 100, 100, 200, 200, 100, 100, 100, 100, 100, 100, 400, 50, 50, 300, 100, 100, 100, 100, 400, 100, 100, 100, 100, 100, 100, 100, 100, 100, 100, 100, 100, 400, 100, 100, 100, 100, 100, 100, 100, 100, 200, 100, 100, 50, 50, 50, 50, 200, 200, 200, 400, 200, 100, 100, 100, 100, 100, 100, 400, 400, 200, 100, 100, 400, 100, 100, 100, 100, 100, 100, 100, 100, 200, 100, 100, 400, 100, 100, 100, 100, 100, 100, 100, 100, 200, 100, 100, 400, 200, 200, 400, 200, 100, 100, 100, 100, 100, 100, 400, 50, 50, 300, 100, 100, 100, 100, 400, 100, 100, 100, 100, 100, 100, 100, 100, 100, 100, 100, 100, 400, 100, 100, 100, 100, 100, 100, 100, 100, 200, 100, 100, 50, 50, 50, 50, 200, 200, 200, 400, 200, 100, 100, 100, 100, 100, 100, 400, 400, 200, 100, 100, 50, 50, 300, 100, 100, 100, 100, 100, 100, 100, 100, 300, 50, 50, 100, 100, 100, 100, 400, 100, 100, 100, 100, 300, 50, 50, 100, 100, 100, 100, 400, 400, 200, 100, 100, 100, 100, 100, 100, 400, 400, 200, 100, 100, 50, 50, 300, 100, 100, 100, 100, 100, 100, 100, 100, 300, 50, 50, 100, 100, 100, 100, 300, 100, 100, 100, 100, 100, 100, 100, 100, 100, 100, 100, 100, 100, 50, 50, 300, 100, /*Changed note200*/200, 100, 200, 100, 100, 100, 100, 100, 100, 400, 400, 200, 100, 100, 50, 50, 300, 100, 100, 100, 100, 100, 100, 100, 100, 300, 50, 50, 100, 100, 100, 100, 400, 100, 100, 100, 100, 300, 50, 50, 100, 100, 100, 100, 400, 400, 200, 100, 100, 100, 100, 100, 100, 400, 50, 300, 50, 100, 100, 100, 100, 400, 400, 50, 150, 200, 200, 200, 100, 100, 100, 100, 200, 200, 200, 200, 200, 200, 200, 200, 200, 200, 200, 200
};

const unsigned int undertale2Notes[] PROGMEM =
{
	NOTE_REST, NOTE_REST, NOTE_REST, NOTE_REST, NOTE_REST, NOTE_REST, NOTE_REST, NOTE_REST, NOTE_REST, NOTE_EF4, NOTE_REST, NOTE_G4, NOTE_REST, NOTE_B4, NOTE_C5, NOTE_B4, NOTE_C5, NOTE_REST, NOTE_D5, NOTE_G5, NOTE_REST, NOTE_EF5, NOTE_REST, NOTE_C5, NOTE_REST, NOTE_G4, NOTE_REST, NOTE_G4, NOTE_C5, NOTE_REST, NOTE_B4, NOTE_C5, NOTE_REST, NOTE_G4, NOTE_REST, NOTE_EF4, NOTE_REST, NOTE_C4, NOTE_REST, NOTE_G4, NOTE_REST, NOTE_B4, NOTE_C5, NOTE_REST, NOTE_REST, NOTE_C5, NOTE_EF5, NOTE_F5, NOTE_G5, NOTE_FS5, NOTE_REST, NOTE_EF5, NOTE_REST, NOTE_FS5, NOTE_G5, NOTE_REST, NOTE_EF5, NOTE_REST, NOTE_C5, NOTE_REST, NOTE_G4, NOTE_REST, NOTE_EF4, NOTE_REST, NOTE_G4, NOTE_REST, NOTE_B4, NOTE_C5, NOTE_REST, NOTE_G4, NOTE_REST, NOTE_EF4, NOTE_REST, NOTE_C4, NOTE_REST, NOTE_B3, NOTE_REST, NOTE_G4, NOTE_C4, NOTE_REST, NOTE_F3, NOTE_AF3, NOTE_REST, NOTE_F3, NOTE_AF3, NOTE_REST, NOTE_F3, NOTE_AF3, NOTE_REST, NOTE_F3, NOTE_AF3, NOTE_REST, NOTE_G3, NOTE_B3, NOTE_REST, NOTE_G3, NOTE_B3, NOTE_REST, NOTE_G3, NOTE_B3, NOTE_REST, NOTE_G3, NOTE_B3, NOTE_REST, NOTE_AF3, NOTE_C4, NOTE_REST, NOTE_AF3, NOTE_C4, NOTE_REST, NOTE_AF3, NOTE_C4, NOTE_REST, NOTE_AF3, NOTE_C4, NOTE_REST, NOTE_EF4, NOTE_G4, NOTE_REST, NOTE_EF4, NOTE_G4, NOTE_REST, NOTE_EF4, NOTE_REST, NOTE_D4, NOTE_REST, NOTE_G4, NOTE_REST, NOTE_D4, NOTE_REST, NOTE_F3, NOTE_AF3, NOTE_REST, NOTE_F3, NOTE_AF3, NOTE_REST, NOTE_F3, NOTE_AF3, NOTE_REST, NOTE_F3, NOTE_AF3, NOTE_REST, NOTE_G3, NOTE_B3, NOTE_REST, NOTE_G3, NOTE_B3, NOTE_REST, NOTE_G3, NOTE_B3, NOTE_REST, NOTE_G3, NOTE_B3, NOTE_REST, NOTE_AF3, NOTE_C4, NOTE_REST, NOTE_AF3, NOTE_C4, NOTE_REST, NOTE_AF3, NOTE_C4, NOTE_REST, NOTE_AF3, NOTE_C4, NOTE_REST, NOTE_G3, NOTE_B3, NOTE_REST, NOTE_G3, NOTE_B3, NOTE_REST, NOTE_F4, NOTE_G4, NOTE_REST, NOTE_F4, NOTE_REST, NOTE_EF4, NOTE_REST, NOTE_D4, NOTE_REST, NOTE_F3, NOTE_AF3, NOTE_REST, NOTE_F3, NOTE_AF3, NOTE_REST, NOTE_F3, NOTE_AF3, NOTE_REST, NOTE_F3, NOTE_AF3, NOTE_REST, NOTE_G3, NOTE_B3, NOTE_REST, NOTE_G3, NOTE_B3, NOTE_REST, NOTE_G3, NOTE_B3, NOTE_REST, NOTE_G3, NOTE_B3, NOTE_REST, NOTE_AF3, NOTE_C4, NOTE_REST, NOTE_AF3, NOTE_C4, NOTE_REST, NOTE_AF3, NOTE_C4, NOTE_REST, NOTE_AF3, NOTE_C4, NOTE_REST, NOTE_EF4, NOTE_G4, NOTE_REST, NOTE_EF4, NOTE_G4, NOTE_REST, NOTE_EF4, NOTE_REST, NOTE_D4, NOTE_REST, NOTE_G4, NOTE_REST, NOTE_D4, NOTE_REST, NOTE_F3, NOTE_REST, NOTE_AF3, NOTE_REST, NOTE_F3, NOTE_REST, NOTE_AF3, NOTE_REST, NOTE_F3, NOTE_REST, NOTE_AF3, NOTE_REST, NOTE_F3, NOTE_REST, NOTE_AF3, NOTE_REST, NOTE_G3, NOTE_REST, NOTE_B3, NOTE_REST, NOTE_G3, NOTE_REST, NOTE_B3, NOTE_REST, NOTE_G3, NOTE_REST, NOTE_B3, NOTE_REST, NOTE_G3, NOTE_REST, NOTE_B3, NOTE_REST, NOTE_AF3, NOTE_REST, NOTE_C4, NOTE_REST, NOTE_AF3, NOTE_REST, NOTE_C4, NOTE_REST, NOTE_AF3, NOTE_REST, NOTE_C4, NOTE_REST, NOTE_AF3, NOTE_REST, NOTE_C4, NOTE_REST, NOTE_G3, NOTE_REST, NOTE_B3, NOTE_REST, NOTE_C4, NOTE_REST
};

const unsigned int undertale2Times[] PROGMEM =
{
	1600, 1600, 1600, 1600, 1600, 1600, 1600, 1600, 400, 100, 100, 100, 100, 400, 400, 200, 100, 100, 400, 100, 100, 100, 100, 100, 100, 100, 100, 200, 100, 100, 400, 100, 100, 100, 100, 100, 100, 100, 100, 200, 200, 400, 200, 600, 800, 400, 50, 50, 300, 100, 100, 100, 100, 400, 100, 100, 100, 100, 100, 100, 100, 100, 100, 100, 100, 100, 400, 100, 100, 100, 100, 100, 100, 100, 100, 200, 200, 400, 400, 400, 200, 100, 100, 200, 100, 100, 200, 100, 100, 200, 100, 100, 200, 100, 100, 200, 100, 100, 200, 100, 100, 200, 100, 100, 200, 100, 100, 200, 100, 100, 200, 100, 100, 200, 100, 100, 200, 100, 100, 200, 100, 100, 100, 100, 100, 100, 100, 100, 100, 100, 200, 100, 100, 200, 100, 100, 200, 100, 100, 200, 100, 100, 200, 100, 100, 200, 100, 100, 200, 100, 100, 200, 100, 100, 200, 100, 100, 200, 100, 100, 200, 100, 100, 200, 100, 100, 200, 100, 100, 200, 100, 50, 50, 100, 100, 100, 100, 100, 100, 100, 100, 200, 100, 100, 200, 100, 100, 200, 100, 100, 200, 100, 100, 200, 100, 100, 200, 100, 100, 200, 100, 100, 200, 100, 100, 200, 100, 100, 200, 100, 100, 200, 100, 100, 200, 100, 100, 200, 100, 100, 200, 100, 100, 100, 100, 100, 100, 100, 100, 100, 100, 100, 100, 100, 100, 100, 100, 100, 100, 100, 100, 100, 100, 100, 100, 100, 100, 100, 100, 100, 100, 100, 100, 100, 100, 100, 100, 100, 100, 100, 100, 100, 100, 100, 100, 100, 100, 100, 100, 100, 100, 100, 100, 100, 100, 100, 100, 100, 100, 200, 200, 200, 200, 200, 600
};

const struct Song undertaleSong PROGMEM =
{
	undertale1Notes,
	undertale1Times,
	undertale2Notes,
	undertale2Times,
	sizeof(undertale1Notes) / sizeof(undertale1Notes[0]),
	sizeof(undertale2Notes) / sizeof(undertale2Notes[0])
};
#pragma endregion

#pragma region Nyan Cat
// Nyan Cat
const unsigned int nyanCatNotes[] PROGMEM =
{
	NOTE_DS6, NOTE_E6, NOTE_FS6, NOTE_REST, NOTE_B6, NOTE_E6, NOTE_DS6, NOTE_E6, NOTE_FS6, NOTE_B6, NOTE_DS7, NOTE_E7, NOTE_DS7, NOTE_AS6, NOTE_B6, NOTE_REST, NOTE_FS6, NOTE_REST, NOTE_DS6, NOTE_E6, NOTE_FS6, NOTE_REST, NOTE_B6, NOTE_CS7, NOTE_AS6, NOTE_B6, NOTE_CS7, NOTE_E7, NOTE_DS7, NOTE_E7, NOTE_CS7, NOTE_FS5, NOTE_GS5, NOTE_C5, NOTE_DS5, NOTE_CS5, NOTE_D5, NOTE_CS5, NOTE_B4, NOTE_B4, NOTE_CS5, NOTE_D5, NOTE_D5, NOTE_CS5, NOTE_B4, NOTE_CS5, NOTE_DS5, NOTE_FS5, NOTE_GS5, NOTE_DS5, NOTE_FS5, NOTE_CS5, NOTE_DS5, NOTE_B4, NOTE_CS5, NOTE_B4, NOTE_DS5, NOTE_FS5, NOTE_GS5, NOTE_DS5, NOTE_FS5, NOTE_CS5, NOTE_DS5, NOTE_B4, NOTE_C5, NOTE_DS5, NOTE_D5, NOTE_CS5, NOTE_B4, NOTE_CS5, NOTE_D5, NOTE_B4, NOTE_CS5, NOTE_DS5, NOTE_FS5, NOTE_CS5, NOTE_D5, NOTE_CS5, NOTE_B4, NOTE_CS5, NOTE_B4, NOTE_CS5, NOTE_FS5, NOTE_GS5, NOTE_C5, NOTE_DS5, NOTE_CS5, NOTE_D5, NOTE_CS5, NOTE_B4, NOTE_B4, NOTE_CS5, NOTE_D5, NOTE_D5, NOTE_CS5, NOTE_B4, NOTE_CS5, NOTE_DS5, NOTE_FS5, NOTE_GS5, NOTE_DS5, NOTE_FS5, NOTE_CS5, NOTE_DS5, NOTE_B4, NOTE_CS5, NOTE_B4, NOTE_DS5, NOTE_FS5, NOTE_GS5, NOTE_DS5, NOTE_FS5, NOTE_CS5, NOTE_DS5, NOTE_B4, NOTE_C5, NOTE_DS5, NOTE_D5, NOTE_CS5, NOTE_B4, NOTE_CS5, NOTE_D5, NOTE_B4, NOTE_CS5, NOTE_DS5, NOTE_FS5, NOTE_CS5, NOTE_D5, NOTE_CS5, NOTE_B4, NOTE_CS5, NOTE_B4, NOTE_B4, NOTE_B4, NOTE_FS4, NOTE_GS4, NOTE_B4, NOTE_FS4, NOTE_GS4, NOTE_B4, NOTE_CS5, NOTE_DS5, NOTE_B4, NOTE_E5, NOTE_DS5, NOTE_E5, NOTE_FS5, NOTE_B4, NOTE_B4, NOTE_FS4, NOTE_GS4, NOTE_B4, NOTE_FS4, NOTE_E5, NOTE_DS5, NOTE_CS5, NOTE_B4, NOTE_E4, NOTE_DS4, NOTE_E4, NOTE_FS4, NOTE_B4, NOTE_FS4, NOTE_GS4, NOTE_B4, NOTE_FS4, NOTE_GS4, NOTE_B4, NOTE_B4, NOTE_CS5, NOTE_DS5, NOTE_B4, NOTE_FS4, NOTE_GS4, NOTE_FS4, NOTE_B4, NOTE_B4, NOTE_AS4, NOTE_B4, NOTE_FS4, NOTE_GS4, NOTE_B4, NOTE_E5, NOTE_DS5, NOTE_E5, NOTE_FS5, NOTE_B4, NOTE_AS4, NOTE_B4, NOTE_FS4, NOTE_GS4, NOTE_B4, NOTE_FS4, NOTE_GS4, NOTE_B4, NOTE_CS5, NOTE_DS5, NOTE_B4, NOTE_E5, NOTE_DS5, NOTE_E5, NOTE_FS5, NOTE_B4, NOTE_B4, NOTE_FS4, NOTE_GS4, NOTE_B4, NOTE_FS4, NOTE_E5, NOTE_DS5, NOTE_CS5, NOTE_B4, NOTE_E4, NOTE_DS4, NOTE_E4, NOTE_FS4, NOTE_B4, NOTE_FS4, NOTE_GS4, NOTE_B4, NOTE_FS4, NOTE_GS4, NOTE_B4, NOTE_B4, NOTE_CS5, NOTE_DS5, NOTE_B4, NOTE_FS4, NOTE_GS4, NOTE_FS4, NOTE_B4, NOTE_B4, NOTE_AS4, NOTE_B4, NOTE_FS4, NOTE_GS4, NOTE_B4, NOTE_E5, NOTE_DS5, NOTE_E5, NOTE_FS5, NOTE_B4, NOTE_CS5, NOTE_B4
};

const unsigned int nyanCatTimes[] PROGMEM =
{
	107, 107, 107, 107, 107, 107, 107, 107, 107, 107, 107, 107, 107, 107, 107, 107, 107, 107, 107, 107, 107, 107, 214, 107, 107, 107, 107, 107, 107, 107, 107, 214, 214, 107, 214, 107, 107, 107, 214, 214, 214, 214, 107, 107, 107, 107, 107, 107, 107, 107, 107, 107, 107, 107, 107, 107, 214, 214, 107, 107, 107, 107, 107, 107, 107, 107, 107, 107, 107, 107, 214, 107, 107, 107, 107, 107, 107, 107, 107, 214, 214, 214, 214, 214, 107, 214, 107, 107, 107, 214, 214, 214, 214, 107, 107, 107, 107, 107, 107, 107, 107, 107, 107, 107, 107, 107, 107, 214, 214, 107, 107, 107, 107, 107, 107, 107, 107, 107, 107, 107, 107, 214, 107, 107, 107, 107, 107, 107, 107, 107, 214, 214, 214, 214, 107, 107, 214, 107, 107, 107, 107, 107, 107, 107, 107, 107, 107, 214, 214, 107, 107, 107, 107, 107, 107, 107, 107, 107, 107, 107, 107, 214, 107, 107, 214, 107, 107, 107, 107, 107, 107, 107, 107, 107, 107, 214, 107, 107, 107, 107, 107, 107, 107, 107, 107, 107, 214, 214, 214, 107, 107, 214, 107, 107, 107, 107, 107, 107, 107, 107, 107, 107, 214, 214, 107, 107, 107, 107, 107, 107, 107, 107, 107, 107, 107, 107, 214, 107, 107, 214, 107, 107, 107, 107, 107, 107, 107, 107, 107, 107, 214, 107, 107, 107, 107, 107, 107, 107, 107, 107, 107, 214, 214, 857
};

const struct Song nyanCatSong PROGMEM =
{
	nyanCatNotes,
	nyanCatTimes,
	NULL,
	NULL,
	sizeof(nyanCatNotes) / sizeof(nyanCatNotes[0]),
	NULL
};

#pragma endregion


const unsigned int bachPartita2GigaNotes[] PROGMEM =
{
	NOTE_A4, NOTE_REST, NOTE_D4, NOTE_F4, NOTE_REST, NOTE_A4, NOTE_REST, NOTE_D5, NOTE_E5, NOTE_REST, NOTE_F5, NOTE_REST, NOTE_E5, NOTE_REST, NOTE_G5, NOTE_F5, NOTE_E5, NOTE_D5, NOTE_CS5, NOTE_A4, NOTE_REST, NOTE_E4, NOTE_REST, NOTE_CS4, NOTE_E4, NOTE_REST, NOTE_A4, NOTE_REST, NOTE_E5, NOTE_F5, NOTE_REST, NOTE_G5, NOTE_REST, NOTE_F5, NOTE_REST, NOTE_A5, NOTE_G5, NOTE_F5, NOTE_E5, NOTE_D5, NOTE_A4, NOTE_REST, NOTE_F4, NOTE_REST, NOTE_D4, NOTE_REST, NOTE_F5, NOTE_E5, NOTE_D5, NOTE_F5, NOTE_BF5, NOTE_A5, NOTE_G5, NOTE_F5, NOTE_E5, NOTE_D5, NOTE_C5, NOTE_D5, NOTE_E5, NOTE_D5, NOTE_C5, NOTE_E5, NOTE_A5, NOTE_G5, NOTE_F5, NOTE_E5, NOTE_D5, NOTE_C5, NOTE_BF4, NOTE_C5, NOTE_D5, NOTE_C5, NOTE_BF4, NOTE_D5, NOTE_G5, NOTE_F5, NOTE_E5, NOTE_D5, NOTE_CS5, NOTE_B4, NOTE_A4, NOTE_B4, NOTE_CS5, NOTE_B4, NOTE_A4, NOTE_CS5, NOTE_E5, NOTE_D5, NOTE_CS5, NOTE_B4, NOTE_A4, NOTE_G4, NOTE_F4, NOTE_A4, NOTE_G4, NOTE_F4, NOTE_E4, NOTE_D4, NOTE_A3, NOTE_D5, NOTE_REST, NOTE_CS5, NOTE_REST, NOTE_D4, NOTE_REST, NOTE_E4, NOTE_F4, NOTE_G4, NOTE_A4, NOTE_BF4, NOTE_C5, NOTE_D5, NOTE_E5, NOTE_F5, NOTE_G5, NOTE_E5, NOTE_C5, NOTE_G4, NOTE_E4, NOTE_G4, NOTE_C5, NOTE_G4, NOTE_E4, NOTE_C4, NOTE_E4, NOTE_G4, NOTE_A4, NOTE_G4, NOTE_F4, NOTE_G4, NOTE_A4, NOTE_BF4, NOTE_C5, NOTE_D5, NOTE_E5, NOTE_F5, NOTE_G5, NOTE_A5, NOTE_BF5, NOTE_A5, NOTE_BF5, NOTE_D6, NOTE_E5, NOTE_G5, NOTE_A5, NOTE_G5, NOTE_A5, NOTE_C6, NOTE_D5, NOTE_F5, NOTE_G5, NOTE_F5, NOTE_G5, NOTE_BF5, NOTE_C5, NOTE_E5, NOTE_F5, NOTE_E5, NOTE_F5, NOTE_A5, NOTE_G5, NOTE_F5, NOTE_E5, NOTE_D5, NOTE_E5, NOTE_F5, NOTE_E5, NOTE_D5, NOTE_C5, NOTE_BF4, NOTE_C5, NOTE_D5, NOTE_C5, NOTE_BF4, NOTE_A4, NOTE_BF4, NOTE_C5, NOTE_F5, NOTE_C5, NOTE_A4, NOTE_F4, NOTE_G4, NOTE_A4, NOTE_C5, NOTE_A4, NOTE_F4, NOTE_D4, NOTE_EF4, NOTE_F4, NOTE_BF4, NOTE_F4, NOTE_D4, NOTE_BF3, NOTE_C4, NOTE_D4, NOTE_F4, NOTE_D4, NOTE_BF3, NOTE_G3, NOTE_BF3, NOTE_D4, NOTE_G4, NOTE_BF4, NOTE_D5, NOTE_G5, NOTE_BF5, NOTE_G5, NOTE_D5, NOTE_BF4, NOTE_G4, NOTE_E4, NOTE_G4, NOTE_C5, NOTE_E5, NOTE_G5, NOTE_BF5, NOTE_C5, NOTE_BF4, NOTE_C5, NOTE_BF5, NOTE_C5, NOTE_BF5, NOTE_F4, NOTE_A4, NOTE_C5, NOTE_E5, NOTE_F5, NOTE_A5, NOTE_C5, NOTE_BF4, NOTE_C5, NOTE_A5, NOTE_C5, NOTE_A5, NOTE_E4, NOTE_G4, NOTE_C5, NOTE_E5, NOTE_G5, NOTE_BF5, NOTE_C5, NOTE_BF4, NOTE_C5, NOTE_BF5, NOTE_C5, NOTE_BF5, NOTE_F4, NOTE_A4, NOTE_C5, NOTE_E5, NOTE_F5, NOTE_A5, NOTE_C5, NOTE_BF4, NOTE_C5, NOTE_A5, NOTE_C5, NOTE_A5, NOTE_BF4, NOTE_D5, NOTE_F5, NOTE_A5, NOTE_BF5, NOTE_D6, NOTE_E5, NOTE_D5, NOTE_E5, NOTE_D6, NOTE_E5, NOTE_D6, NOTE_A4, NOTE_C5, NOTE_E5, NOTE_G5, NOTE_A5, NOTE_C6, NOTE_D5, NOTE_C5, NOTE_D5, NOTE_C6, NOTE_D5, NOTE_C6, NOTE_G4, NOTE_BF4, NOTE_D5, NOTE_F5, NOTE_G5, NOTE_BF5, NOTE_C5, NOTE_BF4, NOTE_C5, NOTE_BF5, NOTE_C5, NOTE_BF5, NOTE_F4, NOTE_A4, NOTE_C5, NOTE_E5, NOTE_F5, NOTE_A5, NOTE_C5, NOTE_BF4, NOTE_C5, NOTE_A5, NOTE_F5, NOTE_D5, NOTE_BF4, NOTE_A4, NOTE_BF4, NOTE_C5, NOTE_D5, NOTE_BF4, NOTE_G4, NOTE_F4, NOTE_G4, NOTE_A4, NOTE_BF4, NOTE_G4, NOTE_E4, NOTE_D4, NOTE_E4, NOTE_F4, NOTE_G4, NOTE_E4, NOTE_C4, NOTE_E4, NOTE_G4, NOTE_C5, NOTE_E5, NOTE_REST, NOTE_BF4, NOTE_A4, NOTE_G4, NOTE_F4, NOTE_E4, NOTE_D4, NOTE_CS4, NOTE_B3, NOTE_A3, NOTE_G4, NOTE_E4, NOTE_F4, NOTE_D4, NOTE_F4, NOTE_A4, NOTE_D5, NOTE_CS5, NOTE_D5, NOTE_A4, NOTE_D5, NOTE_F5, NOTE_B5, NOTE_A5, NOTE_B5, NOTE_F5, NOTE_E5, NOTE_D5, NOTE_C5, NOTE_B4, NOTE_A4, NOTE_GS4, NOTE_FS4, NOTE_E4, NOTE_D5, NOTE_B4, NOTE_C5, NOTE_A4, NOTE_C5, NOTE_E5, NOTE_A5, NOTE_GS5, NOTE_A5, NOTE_B5, NOTE_C6, NOTE_GS5, NOTE_A5, NOTE_C6, NOTE_F5, NOTE_G5, NOTE_A5, NOTE_E5, NOTE_F5, NOTE_A5, NOTE_D5, NOTE_E5, NOTE_F5, NOTE_CS5, NOTE_D5, NOTE_F5, NOTE_GS4, NOTE_REST, NOTE_A4, NOTE_B4, NOTE_C5, NOTE_D5, NOTE_E5, NOTE_F5, NOTE_D5, NOTE_B5, NOTE_D5, NOTE_C5, NOTE_D5, NOTE_E5, NOTE_C5, NOTE_A5, NOTE_C5, NOTE_B4, NOTE_C5, NOTE_D5, NOTE_B4, NOTE_GS5, NOTE_B4, NOTE_C5, NOTE_D5, NOTE_E5, NOTE_C5, NOTE_A5, NOTE_C5, NOTE_D5, NOTE_E5, NOTE_F5, NOTE_D5, NOTE_B5, NOTE_D5, NOTE_C5, NOTE_D5, NOTE_E5, NOTE_B4, NOTE_C5, NOTE_A4, NOTE_B4, NOTE_C5, NOTE_D5, NOTE_A4, NOTE_B4, NOTE_GS4, NOTE_A4, NOTE_A3, NOTE_CS4, NOTE_E4, NOTE_G4, NOTE_REST, NOTE_E4, NOTE_CS4, NOTE_A3, NOTE_CS4, NOTE_E4, NOTE_F4, NOTE_D4, NOTE_F4, NOTE_A4, NOTE_D5, NOTE_CS5, NOTE_D5, NOTE_A4, NOTE_D5, NOTE_F5, NOTE_A5, NOTE_GS5, NOTE_A5, NOTE_E5, NOTE_CS5, NOTE_A4, NOTE_E4, NOTE_CS4, NOTE_A3, NOTE_REST, NOTE_E5, NOTE_REST, NOTE_A4, NOTE_CS5, NOTE_REST, NOTE_E5, NOTE_REST, NOTE_G4, NOTE_A4, NOTE_REST, NOTE_BF4, NOTE_REST, NOTE_CS4, NOTE_REST, NOTE_E4, NOTE_D4, NOTE_CS4, NOTE_B3, NOTE_A3, NOTE_CS4, NOTE_REST, NOTE_E4, NOTE_REST, NOTE_G4, NOTE_A4, NOTE_BF4, NOTE_A4, NOTE_G4, NOTE_BF4, NOTE_E5, NOTE_D5, NOTE_CS5, NOTE_B4, NOTE_A4, NOTE_G4, NOTE_F4, NOTE_E4, NOTE_F4, NOTE_G4, NOTE_A4, NOTE_F4, NOTE_D4, NOTE_REST, NOTE_D5, NOTE_C5, NOTE_BF4, NOTE_A4, NOTE_C5, NOTE_BF4, NOTE_A4, NOTE_G4, NOTE_FS4, NOTE_EF5, NOTE_D5, NOTE_C5, NOTE_BF4, NOTE_A4, NOTE_G4, NOTE_FS4, NOTE_A4, NOTE_G4, NOTE_FS4, NOTE_E4, NOTE_D4, NOTE_A5, NOTE_G5, NOTE_FS5, NOTE_E5, NOTE_D5, NOTE_C5, NOTE_BF4, NOTE_D5, NOTE_C5, NOTE_BF4, NOTE_A4, NOTE_G4, NOTE_C6, NOTE_BF5, NOTE_A5, NOTE_G5, NOTE_FS5, NOTE_E5, NOTE_D5, NOTE_E5, NOTE_FS5, NOTE_A5, NOTE_G5, NOTE_F5, NOTE_EF5, NOTE_D5, NOTE_C5, NOTE_BF4, NOTE_A4, NOTE_G4, NOTE_FS4, NOTE_A4, NOTE_D5, NOTE_FS5, NOTE_A5, NOTE_C6, NOTE_D5, NOTE_C5, NOTE_D5, NOTE_C6, NOTE_D5, NOTE_C6, NOTE_G4, NOTE_BF4, NOTE_D5, NOTE_FS5, NOTE_G5, NOTE_BF5, NOTE_D5, NOTE_C5, NOTE_D5, NOTE_BF5, NOTE_D5, NOTE_BF5, NOTE_FS4, NOTE_A4, NOTE_D5, NOTE_FS5, NOTE_A5, NOTE_C6, NOTE_D5, NOTE_C5, NOTE_D5, NOTE_C6, NOTE_D5, NOTE_C6, NOTE_G4, NOTE_BF4, NOTE_D5, NOTE_FS5, NOTE_G5, NOTE_BF5, NOTE_D5, NOTE_C5, NOTE_D5, NOTE_BF5, NOTE_D5, NOTE_BF5, NOTE_C4, NOTE_EF4, NOTE_G4, NOTE_BF4, NOTE_C5, NOTE_EF5, NOTE_F4, NOTE_EF4, NOTE_F4, NOTE_EF5, NOTE_F4, NOTE_EF5, NOTE_BF3, NOTE_D4, NOTE_F4, NOTE_A4, NOTE_BF4, NOTE_D5, NOTE_EF4, NOTE_D4, NOTE_EF4, NOTE_D5, NOTE_EF4, NOTE_D5, NOTE_A3, NOTE_C4, NOTE_EF4, NOTE_G4, NOTE_A4, NOTE_C5, NOTE_D4, NOTE_C4, NOTE_D4, NOTE_C5, NOTE_D4, NOTE_C5, NOTE_G3, NOTE_BF3, NOTE_D4, NOTE_FS4, NOTE_G4, NOTE_BF4, NOTE_D4, NOTE_FS4, NOTE_G4, NOTE_BF4, NOTE_D5, NOTE_G5, NOTE_EF5, NOTE_D5, NOTE_EF5, NOTE_F5, NOTE_G5, NOTE_EF5, NOTE_C5, NOTE_BF4, NOTE_C5, NOTE_D5, NOTE_EF5, NOTE_C5, NOTE_A4, NOTE_G4, NOTE_A4, NOTE_BF4, NOTE_C5, NOTE_A4, NOTE_FS4, NOTE_A4, NOTE_D5, NOTE_FS5, NOTE_A5, NOTE_C6, NOTE_BF5, NOTE_A5, NOTE_C6, NOTE_BF5, NOTE_A5, NOTE_G5, NOTE_D5, NOTE_G5, NOTE_FS5, NOTE_G5, NOTE_A5, NOTE_FS5, NOTE_G5, NOTE_EF5, NOTE_D5, NOTE_C5, NOTE_BF4, NOTE_A4, NOTE_BF4, NOTE_G4, NOTE_A4, NOTE_BF4, NOTE_C5, NOTE_D5, NOTE_E5, NOTE_F5, NOTE_G5, NOTE_E5, NOTE_BF4, NOTE_E5, NOTE_C4, NOTE_E4, NOTE_G4, NOTE_BF4, NOTE_A4, NOTE_G4, NOTE_A4, NOTE_BF4, NOTE_C5, NOTE_A4, NOTE_F4, NOTE_A4, NOTE_BF3, NOTE_D4, NOTE_F4, NOTE_A4, NOTE_F4, NOTE_D4, NOTE_CS5, NOTE_D5, NOTE_E5, NOTE_CS5, NOTE_G4, NOTE_CS5, NOTE_A3, NOTE_CS4, NOTE_E4, NOTE_G4, NOTE_F4, NOTE_E4, NOTE_F4, NOTE_D4, NOTE_F4, NOTE_A4, NOTE_D5, NOTE_CS5, NOTE_D5, NOTE_A4, NOTE_D5, NOTE_F5, NOTE_A5, NOTE_C5, NOTE_BF4, NOTE_A5, NOTE_G5, NOTE_F5, NOTE_E5, NOTE_D5, NOTE_C5, NOTE_D5, NOTE_E5, NOTE_F5, NOTE_G5, NOTE_BF4, NOTE_A4, NOTE_G5, NOTE_F5, NOTE_E5, NOTE_D5, NOTE_C5, NOTE_BF4, NOTE_C5, NOTE_D5, NOTE_E5, NOTE_F5, NOTE_A4, NOTE_G4, NOTE_F5, NOTE_E5, NOTE_D5, NOTE_CS5, NOTE_B4, NOTE_A4, NOTE_B4, NOTE_CS5, NOTE_D5, NOTE_E5, NOTE_G4, NOTE_F4, NOTE_A4, NOTE_D5, NOTE_A4, NOTE_F4, NOTE_A4, NOTE_D4, NOTE_F4, NOTE_A4, NOTE_F4, NOTE_D4, NOTE_F4, NOTE_BF3, NOTE_F4, NOTE_D5, NOTE_F5, NOTE_E5, NOTE_CS5, NOTE_A3, NOTE_F4, NOTE_D5, NOTE_F5, NOTE_E5, NOTE_CS5, NOTE_G3, NOTE_F4, NOTE_D5, NOTE_F5, NOTE_E5, NOTE_D5, NOTE_BF5, NOTE_A5, NOTE_G5, NOTE_F5, NOTE_E5, NOTE_D5, NOTE_CS5, NOTE_E5, NOTE_F5, NOTE_G5, NOTE_A5, NOTE_E5, NOTE_D5, NOTE_CS5, NOTE_B4, NOTE_A4, NOTE_E5, NOTE_G4, NOTE_F4, NOTE_G4, NOTE_A4, NOTE_F4, NOTE_D5, NOTE_F4, NOTE_E4, NOTE_F4, NOTE_G4, NOTE_E4, NOTE_C5, NOTE_E4, NOTE_D4, NOTE_E4, NOTE_F4, NOTE_D4, NOTE_BF4, NOTE_D4, NOTE_C4, NOTE_D4, NOTE_E4, NOTE_C4, NOTE_A4, NOTE_C4, NOTE_BF3, NOTE_C4, NOTE_D4, NOTE_BF3, NOTE_G4, NOTE_D4, NOTE_G4, NOTE_A4, NOTE_BF4, NOTE_G4, NOTE_EF5, NOTE_G4, NOTE_A3, NOTE_B3, NOTE_CS4, NOTE_A3, NOTE_G4, NOTE_A3, NOTE_G4, NOTE_A4, NOTE_BF4, NOTE_G4, NOTE_CS5, NOTE_G4, NOTE_F4, NOTE_G4, NOTE_A4, NOTE_F4, NOTE_D5, NOTE_A4, NOTE_D5, NOTE_E5, NOTE_F5, NOTE_D5, NOTE_B5, NOTE_D5, NOTE_GS4, NOTE_A4, NOTE_B4, NOTE_CS5, NOTE_D5, NOTE_E5, NOTE_F5, NOTE_E5, NOTE_D5, NOTE_CS5, NOTE_D5, NOTE_GS4, NOTE_A4, NOTE_CS5, NOTE_D5, NOTE_E5, NOTE_F5, NOTE_G5, NOTE_A5, NOTE_BF5, NOTE_E5, NOTE_F5, NOTE_G5, NOTE_CS5, NOTE_D5, NOTE_D4, NOTE_F4, NOTE_A4, NOTE_D5, NOTE_E5, NOTE_F5, NOTE_D5, NOTE_F5, NOTE_A5, NOTE_D6, NOTE_CS6, NOTE_D6, NOTE_A5, NOTE_F5, NOTE_D5, NOTE_A4, NOTE_F4, NOTE_D4, NOTE_REST
};

const unsigned int bachPartita2GigaTimes[] PROGMEM =
{
	132, 132, 265, 132, 132, 132, 132, 265, 132, 132, 132, 132, 132, 132, 132, 132, 132, 132, 265, 132, 132, 132, 132, 265, 132, 132, 132, 132, 265, 132, 132, 132, 132, 132, 132, 132, 132, 132, 132, 265, 132, 132, 132, 132, 132, 132, 132, 132, 132, 132, 132, 132, 132, 132, 132, 132, 132, 132, 132, 132, 132, 132, 132, 132, 132, 132, 132, 132, 132, 132, 132, 132, 132, 132, 132, 132, 132, 132, 132, 132, 132, 132, 132, 132, 132, 132, 132, 132, 132, 132, 132, 132, 132, 132, 132, 132, 132, 132, 265, 132, 132, 132, 132, 265, 132, 132, 132, 132, 132, 132, 132, 132, 132, 132, 132, 132, 132, 132, 132, 132, 132, 132, 132, 132, 132, 132, 132, 132, 132, 132, 132, 132, 132, 132, 132, 132, 132, 132, 132, 132, 132, 132, 132, 132, 132, 132, 132, 132, 132, 132, 132, 132, 132, 132, 132, 132, 132, 132, 132, 132, 132, 132, 132, 132, 132, 132, 132, 132, 132, 132, 132, 132, 132, 132, 132, 132, 132, 132, 132, 132, 132, 132, 132, 132, 132, 132, 132, 132, 132, 132, 132, 132, 132, 132, 132, 132, 132, 132, 132, 132, 132, 132, 132, 132, 132, 132, 132, 132, 132, 132, 132, 132, 132, 132, 132, 132, 132, 132, 132, 132, 132, 132, 132, 132, 132, 132, 132, 132, 132, 132, 132, 132, 132, 132, 132, 132, 132, 132, 132, 132, 132, 132, 132, 132, 132, 132, 132, 132, 132, 132, 132, 132, 132, 132, 132, 132, 132, 132, 132, 132, 132, 132, 132, 132, 132, 132, 132, 132, 132, 132, 132, 132, 132, 132, 132, 132, 132, 132, 132, 132, 132, 132, 132, 132, 132, 132, 132, 132, 132, 132, 132, 132, 132, 132, 132, 132, 132, 132, 132, 132, 132, 132, 132, 132, 132, 132, 132, 132, 132, 132, 132, 132, 132, 132, 132, 132, 132, 132, 132, 132, 132, 132, 132, 132, 132, 132, 132, 132, 265, 132, 132, 132, 132, 132, 132, 132, 132, 132, 132, 132, 132, 132, 132, 132, 132, 132, 132, 132, 132, 132, 132, 132, 132, 132, 132, 132, 132, 132, 132, 132, 132, 132, 132, 132, 132, 132, 132, 132, 132, 132, 132, 132, 132, 132, 132, 132, 132, 132, 132, 132, 132, 132, 132, 132, 132, 132, 132, 132, 132, 265, 132, 132, 132, 132, 132, 132, 132, 132, 132, 132, 132, 132, 132, 132, 132, 132, 132, 132, 132, 132, 132, 132, 132, 132, 132, 132, 132, 132, 132, 132, 132, 132, 132, 132, 132, 132, 132, 132, 132, 132, 132, 132, 132, 132, 132, 132, 132, 132, 132, 132, 265, 132, 132, 132, 132, 132, 132, 132, 132, 132, 132, 132, 132, 132, 132, 132, 132, 132, 132, 132, 132, 132, 132, 132, 132, 265, 265, 132, 132, 265, 132, 132, 132, 132, 265, 132, 132, 132, 132, 132, 132, 132, 132, 132, 132, 265, 132, 132, 132, 132, 132, 132, 132, 132, 132, 132, 132, 132, 132, 132, 132, 132, 132, 132, 132, 132, 132, 132, 265, 132, 132, 132, 132, 132, 132, 132, 132, 132, 132, 132, 132, 132, 132, 132, 132, 132, 132, 132, 132, 132, 132, 132, 132, 132, 132, 132, 132, 132, 132, 132, 132, 132, 132, 132, 132, 132, 132, 132, 132, 132, 132, 132, 132, 132, 132, 132, 132, 132, 132, 132, 132, 132, 132, 132, 132, 132, 132, 132, 132, 132, 132, 132, 132, 132, 132, 132, 132, 132, 132, 132, 132, 132, 132, 132, 132, 132, 132, 132, 132, 132, 132, 132, 132, 132, 132, 132, 132, 132, 132, 132, 132, 132, 132, 132, 132, 132, 132, 132, 132, 132, 132, 132, 132, 132, 132, 132, 132, 132, 132, 132, 132, 132, 132, 132, 132, 132, 132, 132, 132, 132, 132, 132, 132, 132, 132, 132, 132, 132, 132, 132, 132, 132, 132, 132, 132, 132, 132, 132, 132, 132, 132, 132, 132, 132, 132, 132, 132, 132, 132, 132, 132, 132, 132, 132, 132, 132, 132, 132, 132, 132, 132, 132, 132, 132, 132, 132, 132, 132, 132, 132, 132, 132, 132, 132, 132, 132, 132, 132, 132, 132, 132, 132, 132, 132, 132, 132, 132, 132, 132, 132, 132, 132, 132, 132, 132, 132, 132, 132, 132, 132, 132, 132, 132, 132, 132, 132, 132, 132, 132, 132, 132, 132, 132, 132, 132, 132, 132, 132, 132, 132, 132, 132, 132, 132, 132, 132, 132, 132, 132, 132, 132, 132, 132, 132, 132, 132, 132, 132, 132, 132, 132, 132, 132, 132, 132, 132, 132, 132, 132, 132, 132, 132, 132, 132, 132, 132, 132, 132, 132, 132, 132, 132, 132, 132, 132, 132, 132, 132, 132, 132, 132, 132, 132, 132, 132, 132, 132, 132, 132, 132, 132, 132, 132, 132, 132, 132, 132, 132, 132, 132, 132, 132, 132, 132, 132, 132, 132, 132, 132, 132, 132, 132, 132, 132, 132, 132, 132, 132, 132, 132, 132, 132, 132, 132, 132, 132, 132, 132, 132, 132, 132, 132, 132, 132, 132, 132, 132, 132, 132, 132, 132, 132, 132, 132, 132, 132, 132, 132, 132, 132, 132, 132, 132, 132, 132, 132, 132, 132, 132, 132, 132, 132, 132, 132, 132, 132, 132, 132, 132, 132, 132, 132, 132, 132, 132, 132, 132, 132, 132, 132, 132, 132, 132, 132, 132, 132, 132, 132, 132, 132, 132, 132, 132, 132, 132, 132, 132, 132, 132, 132, 132, 132, 132, 132, 132, 132, 132, 132, 132, 132, 132, 132, 132, 132, 132, 132, 132, 132, 132, 132, 132, 132, 132, 132, 132, 132, 132, 132, 132, 132, 132, 132, 132, 132, 132, 132, 132, 132, 132, 530, 265
};

const struct Song bachPartita2GigaSong PROGMEM =
{
	bachPartita2GigaNotes,
	bachPartita2GigaTimes,
	NULL,
	NULL,
	sizeof(bachPartita2GigaNotes) / sizeof(bachPartita2GigaNotes[0]),
	NULL
};

#pragma endregion